<?xml version="1.0" encoding="utf-8" standalone="no"?>
<!DOCTYPE svg PUBLIC "-//W3C//DTD SVG 1.1//EN"
  "http://www.w3.org/Graphics/SVG/1.1/DTD/svg11.dtd">
<svg xmlns:xlink="http://www.w3.org/1999/xlink" width="791.83625pt" height="389.769625pt" viewBox="0 0 791.83625 389.769625" xmlns="http://www.w3.org/2000/svg" version="1.1">
 <metadata>
  <rdf:RDF xmlns:dc="http://purl.org/dc/elements/1.1/" xmlns:cc="http://creativecommons.org/ns#" xmlns:rdf="http://www.w3.org/1999/02/22-rdf-syntax-ns#">
   <cc:Work>
    <dc:type rdf:resource="http://purl.org/dc/dcmitype/StillImage"/>
    <dc:date>2026-03-22T19:44:56.074100</dc:date>
    <dc:format>image/svg+xml</dc:format>
    <dc:creator>
     <cc:Agent>
      <dc:title>Matplotlib v3.9.2, https://matplotlib.org/</dc:title>
     </cc:Agent>
    </dc:creator>
   </cc:Work>
  </rdf:RDF>
 </metadata>
 <defs>
  <style type="text/css">*{stroke-linejoin: round; stroke-linecap: butt}</style>
 </defs>
 <g id="figure_1">
  <g id="patch_1">
   <path d="M 0 389.769625 
L 791.83625 389.769625 
L 791.83625 0 
L 0 0 
z
" style="fill: #ffffff"/>
  </g>
  <g id="axes_1">
   <g id="patch_2">
    <path d="M 101.615625 351.245563 
L 659.615625 351.245563 
L 659.615625 40.781563 
L 101.615625 40.781563 
z
" style="fill: #fafafa"/>
   </g>
   <g id="patch_3">
    <path d="M 101.615625 67.722653 
L 168.795466 67.722653 
L 168.795466 80.551744 
L 101.615625 80.551744 
z
" clip-path="url(#p0594b1131f)" style="fill: #ff7043; opacity: 0.85"/>
   </g>
   <g id="patch_4">
    <path d="M 101.615625 104.377199 
L 158.451829 104.377199 
L 158.451829 117.20629 
L 101.615625 117.20629 
z
" clip-path="url(#p0594b1131f)" style="fill: #ff7043; opacity: 0.85"/>
   </g>
   <g id="patch_5">
    <path d="M 101.615625 141.031744 
L 273.553166 141.031744 
L 273.553166 153.860835 
L 101.615625 153.860835 
z
" clip-path="url(#p0594b1131f)" style="fill: #ff7043; opacity: 0.85"/>
   </g>
   <g id="patch_6">
    <path d="M 101.615625 177.68629 
L 110.947113 177.68629 
L 110.947113 190.515381 
L 101.615625 190.515381 
z
" clip-path="url(#p0594b1131f)" style="fill: #ff7043; opacity: 0.85"/>
   </g>
   <g id="patch_7">
    <path d="M 101.615625 214.340835 
L 153.264033 214.340835 
L 153.264033 227.169926 
L 101.615625 227.169926 
z
" clip-path="url(#p0594b1131f)" style="fill: #ff7043; opacity: 0.85"/>
   </g>
   <g id="patch_8">
    <path d="M 101.615625 250.995381 
L 121.349388 250.995381 
L 121.349388 263.824472 
L 101.615625 263.824472 
z
" clip-path="url(#p0594b1131f)" style="fill: #ff7043; opacity: 0.85"/>
   </g>
   <g id="patch_9">
    <path d="M 101.615625 287.649926 
L 116.146122 287.649926 
L 116.146122 300.479017 
L 101.615625 300.479017 
z
" clip-path="url(#p0594b1131f)" style="fill: #ff7043; opacity: 0.85"/>
   </g>
   <g id="patch_10">
    <path d="M 101.615625 324.304472 
L 116.084077 324.304472 
L 116.084077 337.133562 
L 101.615625 337.133562 
z
" clip-path="url(#p0594b1131f)" style="fill: #ff7043; opacity: 0.85"/>
   </g>
   <g id="patch_11">
    <path d="M 101.615625 54.893562 
L 548.015625 54.893562 
L 548.015625 67.722653 
L 101.615625 67.722653 
z
" clip-path="url(#p0594b1131f)" style="fill: #26a69a; opacity: 0.85"/>
   </g>
   <g id="patch_12">
    <path d="M 101.615625 91.548108 
L 141.754759 91.548108 
L 141.754759 104.377199 
L 101.615625 104.377199 
z
" clip-path="url(#p0594b1131f)" style="fill: #26a69a; opacity: 0.85"/>
   </g>
   <g id="patch_13">
    <path d="M 101.615625 128.202653 
L 142.19796 128.202653 
L 142.19796 141.031744 
L 101.615625 141.031744 
z
" clip-path="url(#p0594b1131f)" style="fill: #26a69a; opacity: 0.85"/>
   </g>
   <g id="patch_14">
    <path d="M 101.615625 164.857199 
L 108.16347 164.857199 
L 108.16347 177.68629 
L 101.615625 177.68629 
z
" clip-path="url(#p0594b1131f)" style="fill: #26a69a; opacity: 0.85"/>
   </g>
   <g id="patch_15">
    <path d="M 101.615625 201.511744 
L 154.072993 201.511744 
L 154.072993 214.340835 
L 101.615625 214.340835 
z
" clip-path="url(#p0594b1131f)" style="fill: #26a69a; opacity: 0.85"/>
   </g>
   <g id="patch_16">
    <path d="M 101.615625 238.16629 
L 142.798077 238.16629 
L 142.798077 250.995381 
L 101.615625 250.995381 
z
" clip-path="url(#p0594b1131f)" style="fill: #26a69a; opacity: 0.85"/>
   </g>
   <g id="patch_17">
    <path d="M 101.615625 274.820835 
L 133.378402 274.820835 
L 133.378402 287.649926 
L 101.615625 287.649926 
z
" clip-path="url(#p0594b1131f)" style="fill: #26a69a; opacity: 0.85"/>
   </g>
   <g id="patch_18">
    <path d="M 101.615625 311.475381 
L 133.121029 311.475381 
L 133.121029 324.304472 
L 101.615625 324.304472 
z
" clip-path="url(#p0594b1131f)" style="fill: #26a69a; opacity: 0.85"/>
   </g>
   <g id="matplotlib.axis_1">
    <g id="xtick_1">
     <g id="line2d_1">
      <path d="M 101.615625 351.245563 
L 101.615625 40.781563 
" clip-path="url(#p0594b1131f)" style="fill: none; stroke-dasharray: 2.96,1.28; stroke-dashoffset: 0; stroke: #b0b0b0; stroke-opacity: 0.3; stroke-width: 0.8"/>
     </g>
     <g id="line2d_2">
      <defs>
       <path id="m863f1788db" d="M 0 0 
L 0 3.5 
" style="stroke: #000000; stroke-width: 0.8"/>
      </defs>
      <g>
       <use xlink:href="#m863f1788db" x="101.615625" y="351.245563" style="stroke: #000000; stroke-width: 0.8"/>
      </g>
     </g>
     <g id="text_1">
      <!-- 0 -->
      <g transform="translate(98.11625 366.603844) scale(0.11 -0.11)">
       <defs>
        <path id="DejaVuSans-30" d="M 2034 4250 
Q 1547 4250 1301 3770 
Q 1056 3291 1056 2328 
Q 1056 1369 1301 889 
Q 1547 409 2034 409 
Q 2525 409 2770 889 
Q 3016 1369 3016 2328 
Q 3016 3291 2770 3770 
Q 2525 4250 2034 4250 
z
M 2034 4750 
Q 2819 4750 3233 4129 
Q 3647 3509 3647 2328 
Q 3647 1150 3233 529 
Q 2819 -91 2034 -91 
Q 1250 -91 836 529 
Q 422 1150 422 2328 
Q 422 3509 836 4129 
Q 1250 4750 2034 4750 
z
" transform="scale(0.015625)"/>
       </defs>
       <use xlink:href="#DejaVuSans-30"/>
      </g>
     </g>
    </g>
    <g id="xtick_2">
     <g id="line2d_3">
      <path d="M 194.085316 351.245563 
L 194.085316 40.781563 
" clip-path="url(#p0594b1131f)" style="fill: none; stroke-dasharray: 2.96,1.28; stroke-dashoffset: 0; stroke: #b0b0b0; stroke-opacity: 0.3; stroke-width: 0.8"/>
     </g>
     <g id="line2d_4">
      <g>
       <use xlink:href="#m863f1788db" x="194.085316" y="351.245563" style="stroke: #000000; stroke-width: 0.8"/>
      </g>
     </g>
     <g id="text_2">
      <!-- 1000 -->
      <g transform="translate(180.087816 366.603844) scale(0.11 -0.11)">
       <defs>
        <path id="DejaVuSans-31" d="M 794 531 
L 1825 531 
L 1825 4091 
L 703 3866 
L 703 4441 
L 1819 4666 
L 2450 4666 
L 2450 531 
L 3481 531 
L 3481 0 
L 794 0 
L 794 531 
z
" transform="scale(0.015625)"/>
       </defs>
       <use xlink:href="#DejaVuSans-31"/>
       <use xlink:href="#DejaVuSans-30" x="63.623047"/>
       <use xlink:href="#DejaVuSans-30" x="127.246094"/>
       <use xlink:href="#DejaVuSans-30" x="190.869141"/>
      </g>
     </g>
    </g>
    <g id="xtick_3">
     <g id="line2d_5">
      <path d="M 286.555007 351.245563 
L 286.555007 40.781563 
" clip-path="url(#p0594b1131f)" style="fill: none; stroke-dasharray: 2.96,1.28; stroke-dashoffset: 0; stroke: #b0b0b0; stroke-opacity: 0.3; stroke-width: 0.8"/>
     </g>
     <g id="line2d_6">
      <g>
       <use xlink:href="#m863f1788db" x="286.555007" y="351.245563" style="stroke: #000000; stroke-width: 0.8"/>
      </g>
     </g>
     <g id="text_3">
      <!-- 2000 -->
      <g transform="translate(272.557507 366.603844) scale(0.11 -0.11)">
       <defs>
        <path id="DejaVuSans-32" d="M 1228 531 
L 3431 531 
L 3431 0 
L 469 0 
L 469 531 
Q 828 903 1448 1529 
Q 2069 2156 2228 2338 
Q 2531 2678 2651 2914 
Q 2772 3150 2772 3378 
Q 2772 3750 2511 3984 
Q 2250 4219 1831 4219 
Q 1534 4219 1204 4116 
Q 875 4013 500 3803 
L 500 4441 
Q 881 4594 1212 4672 
Q 1544 4750 1819 4750 
Q 2544 4750 2975 4387 
Q 3406 4025 3406 3419 
Q 3406 3131 3298 2873 
Q 3191 2616 2906 2266 
Q 2828 2175 2409 1742 
Q 1991 1309 1228 531 
z
" transform="scale(0.015625)"/>
       </defs>
       <use xlink:href="#DejaVuSans-32"/>
       <use xlink:href="#DejaVuSans-30" x="63.623047"/>
       <use xlink:href="#DejaVuSans-30" x="127.246094"/>
       <use xlink:href="#DejaVuSans-30" x="190.869141"/>
      </g>
     </g>
    </g>
    <g id="xtick_4">
     <g id="line2d_7">
      <path d="M 379.024698 351.245563 
L 379.024698 40.781563 
" clip-path="url(#p0594b1131f)" style="fill: none; stroke-dasharray: 2.96,1.28; stroke-dashoffset: 0; stroke: #b0b0b0; stroke-opacity: 0.3; stroke-width: 0.8"/>
     </g>
     <g id="line2d_8">
      <g>
       <use xlink:href="#m863f1788db" x="379.024698" y="351.245563" style="stroke: #000000; stroke-width: 0.8"/>
      </g>
     </g>
     <g id="text_4">
      <!-- 3000 -->
      <g transform="translate(365.027198 366.603844) scale(0.11 -0.11)">
       <defs>
        <path id="DejaVuSans-33" d="M 2597 2516 
Q 3050 2419 3304 2112 
Q 3559 1806 3559 1356 
Q 3559 666 3084 287 
Q 2609 -91 1734 -91 
Q 1441 -91 1130 -33 
Q 819 25 488 141 
L 488 750 
Q 750 597 1062 519 
Q 1375 441 1716 441 
Q 2309 441 2620 675 
Q 2931 909 2931 1356 
Q 2931 1769 2642 2001 
Q 2353 2234 1838 2234 
L 1294 2234 
L 1294 2753 
L 1863 2753 
Q 2328 2753 2575 2939 
Q 2822 3125 2822 3475 
Q 2822 3834 2567 4026 
Q 2313 4219 1838 4219 
Q 1578 4219 1281 4162 
Q 984 4106 628 3988 
L 628 4550 
Q 988 4650 1302 4700 
Q 1616 4750 1894 4750 
Q 2613 4750 3031 4423 
Q 3450 4097 3450 3541 
Q 3450 3153 3228 2886 
Q 3006 2619 2597 2516 
z
" transform="scale(0.015625)"/>
       </defs>
       <use xlink:href="#DejaVuSans-33"/>
       <use xlink:href="#DejaVuSans-30" x="63.623047"/>
       <use xlink:href="#DejaVuSans-30" x="127.246094"/>
       <use xlink:href="#DejaVuSans-30" x="190.869141"/>
      </g>
     </g>
    </g>
    <g id="xtick_5">
     <g id="line2d_9">
      <path d="M 471.494389 351.245563 
L 471.494389 40.781563 
" clip-path="url(#p0594b1131f)" style="fill: none; stroke-dasharray: 2.96,1.28; stroke-dashoffset: 0; stroke: #b0b0b0; stroke-opacity: 0.3; stroke-width: 0.8"/>
     </g>
     <g id="line2d_10">
      <g>
       <use xlink:href="#m863f1788db" x="471.494389" y="351.245563" style="stroke: #000000; stroke-width: 0.8"/>
      </g>
     </g>
     <g id="text_5">
      <!-- 4000 -->
      <g transform="translate(457.496889 366.603844) scale(0.11 -0.11)">
       <defs>
        <path id="DejaVuSans-34" d="M 2419 4116 
L 825 1625 
L 2419 1625 
L 2419 4116 
z
M 2253 4666 
L 3047 4666 
L 3047 1625 
L 3713 1625 
L 3713 1100 
L 3047 1100 
L 3047 0 
L 2419 0 
L 2419 1100 
L 313 1100 
L 313 1709 
L 2253 4666 
z
" transform="scale(0.015625)"/>
       </defs>
       <use xlink:href="#DejaVuSans-34"/>
       <use xlink:href="#DejaVuSans-30" x="63.623047"/>
       <use xlink:href="#DejaVuSans-30" x="127.246094"/>
       <use xlink:href="#DejaVuSans-30" x="190.869141"/>
      </g>
     </g>
    </g>
    <g id="xtick_6">
     <g id="line2d_11">
      <path d="M 563.96408 351.245563 
L 563.96408 40.781563 
" clip-path="url(#p0594b1131f)" style="fill: none; stroke-dasharray: 2.96,1.28; stroke-dashoffset: 0; stroke: #b0b0b0; stroke-opacity: 0.3; stroke-width: 0.8"/>
     </g>
     <g id="line2d_12">
      <g>
       <use xlink:href="#m863f1788db" x="563.96408" y="351.245563" style="stroke: #000000; stroke-width: 0.8"/>
      </g>
     </g>
     <g id="text_6">
      <!-- 5000 -->
      <g transform="translate(549.96658 366.603844) scale(0.11 -0.11)">
       <defs>
        <path id="DejaVuSans-35" d="M 691 4666 
L 3169 4666 
L 3169 4134 
L 1269 4134 
L 1269 2991 
Q 1406 3038 1543 3061 
Q 1681 3084 1819 3084 
Q 2600 3084 3056 2656 
Q 3513 2228 3513 1497 
Q 3513 744 3044 326 
Q 2575 -91 1722 -91 
Q 1428 -91 1123 -41 
Q 819 9 494 109 
L 494 744 
Q 775 591 1075 516 
Q 1375 441 1709 441 
Q 2250 441 2565 725 
Q 2881 1009 2881 1497 
Q 2881 1984 2565 2268 
Q 2250 2553 1709 2553 
Q 1456 2553 1204 2497 
Q 953 2441 691 2322 
L 691 4666 
z
" transform="scale(0.015625)"/>
       </defs>
       <use xlink:href="#DejaVuSans-35"/>
       <use xlink:href="#DejaVuSans-30" x="63.623047"/>
       <use xlink:href="#DejaVuSans-30" x="127.246094"/>
       <use xlink:href="#DejaVuSans-30" x="190.869141"/>
      </g>
     </g>
    </g>
    <g id="xtick_7">
     <g id="line2d_13">
      <path d="M 656.433771 351.245563 
L 656.433771 40.781563 
" clip-path="url(#p0594b1131f)" style="fill: none; stroke-dasharray: 2.96,1.28; stroke-dashoffset: 0; stroke: #b0b0b0; stroke-opacity: 0.3; stroke-width: 0.8"/>
     </g>
     <g id="line2d_14">
      <g>
       <use xlink:href="#m863f1788db" x="656.433771" y="351.245563" style="stroke: #000000; stroke-width: 0.8"/>
      </g>
     </g>
     <g id="text_7">
      <!-- 6000 -->
      <g transform="translate(642.436271 366.603844) scale(0.11 -0.11)">
       <defs>
        <path id="DejaVuSans-36" d="M 2113 2584 
Q 1688 2584 1439 2293 
Q 1191 2003 1191 1497 
Q 1191 994 1439 701 
Q 1688 409 2113 409 
Q 2538 409 2786 701 
Q 3034 994 3034 1497 
Q 3034 2003 2786 2293 
Q 2538 2584 2113 2584 
z
M 3366 4563 
L 3366 3988 
Q 3128 4100 2886 4159 
Q 2644 4219 2406 4219 
Q 1781 4219 1451 3797 
Q 1122 3375 1075 2522 
Q 1259 2794 1537 2939 
Q 1816 3084 2150 3084 
Q 2853 3084 3261 2657 
Q 3669 2231 3669 1497 
Q 3669 778 3244 343 
Q 2819 -91 2113 -91 
Q 1303 -91 875 529 
Q 447 1150 447 2328 
Q 447 3434 972 4092 
Q 1497 4750 2381 4750 
Q 2619 4750 2861 4703 
Q 3103 4656 3366 4563 
z
" transform="scale(0.015625)"/>
       </defs>
       <use xlink:href="#DejaVuSans-36"/>
       <use xlink:href="#DejaVuSans-30" x="63.623047"/>
       <use xlink:href="#DejaVuSans-30" x="127.246094"/>
       <use xlink:href="#DejaVuSans-30" x="190.869141"/>
      </g>
     </g>
    </g>
    <g id="text_8">
     <!-- μs/op  (lower is better) -->
     <g transform="translate(323.6875 380.489937) scale(0.1 -0.1)">
      <defs>
       <path id="DejaVuSans-3bc" d="M 544 -1331 
L 544 3500 
L 1119 3500 
L 1119 1325 
Q 1119 872 1334 640 
Q 1550 409 1972 409 
Q 2434 409 2667 671 
Q 2900 934 2900 1459 
L 2900 3500 
L 3475 3500 
L 3475 806 
Q 3475 619 3529 530 
Q 3584 441 3700 441 
Q 3728 441 3778 458 
Q 3828 475 3916 513 
L 3916 50 
Q 3788 -22 3673 -56 
Q 3559 -91 3450 -91 
Q 3234 -91 3106 31 
Q 2978 153 2931 403 
Q 2775 156 2548 32 
Q 2322 -91 2016 -91 
Q 1697 -91 1473 31 
Q 1250 153 1119 397 
L 1119 -1331 
L 544 -1331 
z
" transform="scale(0.015625)"/>
       <path id="DejaVuSans-73" d="M 2834 3397 
L 2834 2853 
Q 2591 2978 2328 3040 
Q 2066 3103 1784 3103 
Q 1356 3103 1142 2972 
Q 928 2841 928 2578 
Q 928 2378 1081 2264 
Q 1234 2150 1697 2047 
L 1894 2003 
Q 2506 1872 2764 1633 
Q 3022 1394 3022 966 
Q 3022 478 2636 193 
Q 2250 -91 1575 -91 
Q 1294 -91 989 -36 
Q 684 19 347 128 
L 347 722 
Q 666 556 975 473 
Q 1284 391 1588 391 
Q 1994 391 2212 530 
Q 2431 669 2431 922 
Q 2431 1156 2273 1281 
Q 2116 1406 1581 1522 
L 1381 1569 
Q 847 1681 609 1914 
Q 372 2147 372 2553 
Q 372 3047 722 3315 
Q 1072 3584 1716 3584 
Q 2034 3584 2315 3537 
Q 2597 3491 2834 3397 
z
" transform="scale(0.015625)"/>
       <path id="DejaVuSans-2f" d="M 1625 4666 
L 2156 4666 
L 531 -594 
L 0 -594 
L 1625 4666 
z
" transform="scale(0.015625)"/>
       <path id="DejaVuSans-6f" d="M 1959 3097 
Q 1497 3097 1228 2736 
Q 959 2375 959 1747 
Q 959 1119 1226 758 
Q 1494 397 1959 397 
Q 2419 397 2687 759 
Q 2956 1122 2956 1747 
Q 2956 2369 2687 2733 
Q 2419 3097 1959 3097 
z
M 1959 3584 
Q 2709 3584 3137 3096 
Q 3566 2609 3566 1747 
Q 3566 888 3137 398 
Q 2709 -91 1959 -91 
Q 1206 -91 779 398 
Q 353 888 353 1747 
Q 353 2609 779 3096 
Q 1206 3584 1959 3584 
z
" transform="scale(0.015625)"/>
       <path id="DejaVuSans-70" d="M 1159 525 
L 1159 -1331 
L 581 -1331 
L 581 3500 
L 1159 3500 
L 1159 2969 
Q 1341 3281 1617 3432 
Q 1894 3584 2278 3584 
Q 2916 3584 3314 3078 
Q 3713 2572 3713 1747 
Q 3713 922 3314 415 
Q 2916 -91 2278 -91 
Q 1894 -91 1617 61 
Q 1341 213 1159 525 
z
M 3116 1747 
Q 3116 2381 2855 2742 
Q 2594 3103 2138 3103 
Q 1681 3103 1420 2742 
Q 1159 2381 1159 1747 
Q 1159 1113 1420 752 
Q 1681 391 2138 391 
Q 2594 391 2855 752 
Q 3116 1113 3116 1747 
z
" transform="scale(0.015625)"/>
       <path id="DejaVuSans-20" transform="scale(0.015625)"/>
       <path id="DejaVuSans-28" d="M 1984 4856 
Q 1566 4138 1362 3434 
Q 1159 2731 1159 2009 
Q 1159 1288 1364 580 
Q 1569 -128 1984 -844 
L 1484 -844 
Q 1016 -109 783 600 
Q 550 1309 550 2009 
Q 550 2706 781 3412 
Q 1013 4119 1484 4856 
L 1984 4856 
z
" transform="scale(0.015625)"/>
       <path id="DejaVuSans-6c" d="M 603 4863 
L 1178 4863 
L 1178 0 
L 603 0 
L 603 4863 
z
" transform="scale(0.015625)"/>
       <path id="DejaVuSans-77" d="M 269 3500 
L 844 3500 
L 1563 769 
L 2278 3500 
L 2956 3500 
L 3675 769 
L 4391 3500 
L 4966 3500 
L 4050 0 
L 3372 0 
L 2619 2869 
L 1863 0 
L 1184 0 
L 269 3500 
z
" transform="scale(0.015625)"/>
       <path id="DejaVuSans-65" d="M 3597 1894 
L 3597 1613 
L 953 1613 
Q 991 1019 1311 708 
Q 1631 397 2203 397 
Q 2534 397 2845 478 
Q 3156 559 3463 722 
L 3463 178 
Q 3153 47 2828 -22 
Q 2503 -91 2169 -91 
Q 1331 -91 842 396 
Q 353 884 353 1716 
Q 353 2575 817 3079 
Q 1281 3584 2069 3584 
Q 2775 3584 3186 3129 
Q 3597 2675 3597 1894 
z
M 3022 2063 
Q 3016 2534 2758 2815 
Q 2500 3097 2075 3097 
Q 1594 3097 1305 2825 
Q 1016 2553 972 2059 
L 3022 2063 
z
" transform="scale(0.015625)"/>
       <path id="DejaVuSans-72" d="M 2631 2963 
Q 2534 3019 2420 3045 
Q 2306 3072 2169 3072 
Q 1681 3072 1420 2755 
Q 1159 2438 1159 1844 
L 1159 0 
L 581 0 
L 581 3500 
L 1159 3500 
L 1159 2956 
Q 1341 3275 1631 3429 
Q 1922 3584 2338 3584 
Q 2397 3584 2469 3576 
Q 2541 3569 2628 3553 
L 2631 2963 
z
" transform="scale(0.015625)"/>
       <path id="DejaVuSans-69" d="M 603 3500 
L 1178 3500 
L 1178 0 
L 603 0 
L 603 3500 
z
M 603 4863 
L 1178 4863 
L 1178 4134 
L 603 4134 
L 603 4863 
z
" transform="scale(0.015625)"/>
       <path id="DejaVuSans-62" d="M 3116 1747 
Q 3116 2381 2855 2742 
Q 2594 3103 2138 3103 
Q 1681 3103 1420 2742 
Q 1159 2381 1159 1747 
Q 1159 1113 1420 752 
Q 1681 391 2138 391 
Q 2594 391 2855 752 
Q 3116 1113 3116 1747 
z
M 1159 2969 
Q 1341 3281 1617 3432 
Q 1894 3584 2278 3584 
Q 2916 3584 3314 3078 
Q 3713 2572 3713 1747 
Q 3713 922 3314 415 
Q 2916 -91 2278 -91 
Q 1894 -91 1617 61 
Q 1341 213 1159 525 
L 1159 0 
L 581 0 
L 581 4863 
L 1159 4863 
L 1159 2969 
z
" transform="scale(0.015625)"/>
       <path id="DejaVuSans-74" d="M 1172 4494 
L 1172 3500 
L 2356 3500 
L 2356 3053 
L 1172 3053 
L 1172 1153 
Q 1172 725 1289 603 
Q 1406 481 1766 481 
L 2356 481 
L 2356 0 
L 1766 0 
Q 1100 0 847 248 
Q 594 497 594 1153 
L 594 3053 
L 172 3053 
L 172 3500 
L 594 3500 
L 594 4494 
L 1172 4494 
z
" transform="scale(0.015625)"/>
       <path id="DejaVuSans-29" d="M 513 4856 
L 1013 4856 
Q 1481 4119 1714 3412 
Q 1947 2706 1947 2009 
Q 1947 1309 1714 600 
Q 1481 -109 1013 -844 
L 513 -844 
Q 928 -128 1133 580 
Q 1338 1288 1338 2009 
Q 1338 2731 1133 3434 
Q 928 4138 513 4856 
z
" transform="scale(0.015625)"/>
      </defs>
      <use xlink:href="#DejaVuSans-3bc"/>
      <use xlink:href="#DejaVuSans-73" x="63.623047"/>
      <use xlink:href="#DejaVuSans-2f" x="115.722656"/>
      <use xlink:href="#DejaVuSans-6f" x="149.414062"/>
      <use xlink:href="#DejaVuSans-70" x="210.595703"/>
      <use xlink:href="#DejaVuSans-20" x="274.072266"/>
      <use xlink:href="#DejaVuSans-20" x="305.859375"/>
      <use xlink:href="#DejaVuSans-28" x="337.646484"/>
      <use xlink:href="#DejaVuSans-6c" x="376.660156"/>
      <use xlink:href="#DejaVuSans-6f" x="404.443359"/>
      <use xlink:href="#DejaVuSans-77" x="465.625"/>
      <use xlink:href="#DejaVuSans-65" x="547.412109"/>
      <use xlink:href="#DejaVuSans-72" x="608.935547"/>
      <use xlink:href="#DejaVuSans-20" x="650.048828"/>
      <use xlink:href="#DejaVuSans-69" x="681.835938"/>
      <use xlink:href="#DejaVuSans-73" x="709.619141"/>
      <use xlink:href="#DejaVuSans-20" x="761.71875"/>
      <use xlink:href="#DejaVuSans-62" x="793.505859"/>
      <use xlink:href="#DejaVuSans-65" x="856.982422"/>
      <use xlink:href="#DejaVuSans-74" x="918.505859"/>
      <use xlink:href="#DejaVuSans-74" x="957.714844"/>
      <use xlink:href="#DejaVuSans-65" x="996.923828"/>
      <use xlink:href="#DejaVuSans-72" x="1058.447266"/>
      <use xlink:href="#DejaVuSans-29" x="1099.560547"/>
     </g>
    </g>
   </g>
   <g id="matplotlib.axis_2">
    <g id="ytick_1">
     <g id="line2d_15">
      <path d="M 101.615625 67.722653 
L 659.615625 67.722653 
" clip-path="url(#p0594b1131f)" style="fill: none; stroke-dasharray: 2.96,1.28; stroke-dashoffset: 0; stroke: #b0b0b0; stroke-opacity: 0.3; stroke-width: 0.8"/>
     </g>
     <g id="line2d_16">
      <defs>
       <path id="m00768af06f" d="M 0 0 
L -3.5 0 
" style="stroke: #000000; stroke-width: 0.8"/>
      </defs>
      <g>
       <use xlink:href="#m00768af06f" x="101.615625" y="67.722653" style="stroke: #000000; stroke-width: 0.8"/>
      </g>
     </g>
     <g id="text_9">
      <!-- Describe -->
      <g transform="translate(46.268906 71.901794) scale(0.11 -0.11)">
       <defs>
        <path id="DejaVuSans-44" d="M 1259 4147 
L 1259 519 
L 2022 519 
Q 2988 519 3436 956 
Q 3884 1394 3884 2338 
Q 3884 3275 3436 3711 
Q 2988 4147 2022 4147 
L 1259 4147 
z
M 628 4666 
L 1925 4666 
Q 3281 4666 3915 4102 
Q 4550 3538 4550 2338 
Q 4550 1131 3912 565 
Q 3275 0 1925 0 
L 628 0 
L 628 4666 
z
" transform="scale(0.015625)"/>
        <path id="DejaVuSans-63" d="M 3122 3366 
L 3122 2828 
Q 2878 2963 2633 3030 
Q 2388 3097 2138 3097 
Q 1578 3097 1268 2742 
Q 959 2388 959 1747 
Q 959 1106 1268 751 
Q 1578 397 2138 397 
Q 2388 397 2633 464 
Q 2878 531 3122 666 
L 3122 134 
Q 2881 22 2623 -34 
Q 2366 -91 2075 -91 
Q 1284 -91 818 406 
Q 353 903 353 1747 
Q 353 2603 823 3093 
Q 1294 3584 2113 3584 
Q 2378 3584 2631 3529 
Q 2884 3475 3122 3366 
z
" transform="scale(0.015625)"/>
       </defs>
       <use xlink:href="#DejaVuSans-44"/>
       <use xlink:href="#DejaVuSans-65" x="77.001953"/>
       <use xlink:href="#DejaVuSans-73" x="138.525391"/>
       <use xlink:href="#DejaVuSans-63" x="190.625"/>
       <use xlink:href="#DejaVuSans-72" x="245.605469"/>
       <use xlink:href="#DejaVuSans-69" x="286.71875"/>
       <use xlink:href="#DejaVuSans-62" x="314.501953"/>
       <use xlink:href="#DejaVuSans-65" x="377.978516"/>
      </g>
     </g>
    </g>
    <g id="ytick_2">
     <g id="line2d_17">
      <path d="M 101.615625 104.377199 
L 659.615625 104.377199 
" clip-path="url(#p0594b1131f)" style="fill: none; stroke-dasharray: 2.96,1.28; stroke-dashoffset: 0; stroke: #b0b0b0; stroke-opacity: 0.3; stroke-width: 0.8"/>
     </g>
     <g id="line2d_18">
      <g>
       <use xlink:href="#m00768af06f" x="101.615625" y="104.377199" style="stroke: #000000; stroke-width: 0.8"/>
      </g>
     </g>
     <g id="text_10">
      <!-- GeometricMean -->
      <g transform="translate(7.2 108.556339) scale(0.11 -0.11)">
       <defs>
        <path id="DejaVuSans-47" d="M 3809 666 
L 3809 1919 
L 2778 1919 
L 2778 2438 
L 4434 2438 
L 4434 434 
Q 4069 175 3628 42 
Q 3188 -91 2688 -91 
Q 1594 -91 976 548 
Q 359 1188 359 2328 
Q 359 3472 976 4111 
Q 1594 4750 2688 4750 
Q 3144 4750 3555 4637 
Q 3966 4525 4313 4306 
L 4313 3634 
Q 3963 3931 3569 4081 
Q 3175 4231 2741 4231 
Q 1884 4231 1454 3753 
Q 1025 3275 1025 2328 
Q 1025 1384 1454 906 
Q 1884 428 2741 428 
Q 3075 428 3337 486 
Q 3600 544 3809 666 
z
" transform="scale(0.015625)"/>
        <path id="DejaVuSans-6d" d="M 3328 2828 
Q 3544 3216 3844 3400 
Q 4144 3584 4550 3584 
Q 5097 3584 5394 3201 
Q 5691 2819 5691 2113 
L 5691 0 
L 5113 0 
L 5113 2094 
Q 5113 2597 4934 2840 
Q 4756 3084 4391 3084 
Q 3944 3084 3684 2787 
Q 3425 2491 3425 1978 
L 3425 0 
L 2847 0 
L 2847 2094 
Q 2847 2600 2669 2842 
Q 2491 3084 2119 3084 
Q 1678 3084 1418 2786 
Q 1159 2488 1159 1978 
L 1159 0 
L 581 0 
L 581 3500 
L 1159 3500 
L 1159 2956 
Q 1356 3278 1631 3431 
Q 1906 3584 2284 3584 
Q 2666 3584 2933 3390 
Q 3200 3197 3328 2828 
z
" transform="scale(0.015625)"/>
        <path id="DejaVuSans-4d" d="M 628 4666 
L 1569 4666 
L 2759 1491 
L 3956 4666 
L 4897 4666 
L 4897 0 
L 4281 0 
L 4281 4097 
L 3078 897 
L 2444 897 
L 1241 4097 
L 1241 0 
L 628 0 
L 628 4666 
z
" transform="scale(0.015625)"/>
        <path id="DejaVuSans-61" d="M 2194 1759 
Q 1497 1759 1228 1600 
Q 959 1441 959 1056 
Q 959 750 1161 570 
Q 1363 391 1709 391 
Q 2188 391 2477 730 
Q 2766 1069 2766 1631 
L 2766 1759 
L 2194 1759 
z
M 3341 1997 
L 3341 0 
L 2766 0 
L 2766 531 
Q 2569 213 2275 61 
Q 1981 -91 1556 -91 
Q 1019 -91 701 211 
Q 384 513 384 1019 
Q 384 1609 779 1909 
Q 1175 2209 1959 2209 
L 2766 2209 
L 2766 2266 
Q 2766 2663 2505 2880 
Q 2244 3097 1772 3097 
Q 1472 3097 1187 3025 
Q 903 2953 641 2809 
L 641 3341 
Q 956 3463 1253 3523 
Q 1550 3584 1831 3584 
Q 2591 3584 2966 3190 
Q 3341 2797 3341 1997 
z
" transform="scale(0.015625)"/>
        <path id="DejaVuSans-6e" d="M 3513 2113 
L 3513 0 
L 2938 0 
L 2938 2094 
Q 2938 2591 2744 2837 
Q 2550 3084 2163 3084 
Q 1697 3084 1428 2787 
Q 1159 2491 1159 1978 
L 1159 0 
L 581 0 
L 581 3500 
L 1159 3500 
L 1159 2956 
Q 1366 3272 1645 3428 
Q 1925 3584 2291 3584 
Q 2894 3584 3203 3211 
Q 3513 2838 3513 2113 
z
" transform="scale(0.015625)"/>
       </defs>
       <use xlink:href="#DejaVuSans-47"/>
       <use xlink:href="#DejaVuSans-65" x="77.490234"/>
       <use xlink:href="#DejaVuSans-6f" x="139.013672"/>
       <use xlink:href="#DejaVuSans-6d" x="200.195312"/>
       <use xlink:href="#DejaVuSans-65" x="297.607422"/>
       <use xlink:href="#DejaVuSans-74" x="359.130859"/>
       <use xlink:href="#DejaVuSans-72" x="398.339844"/>
       <use xlink:href="#DejaVuSans-69" x="439.453125"/>
       <use xlink:href="#DejaVuSans-63" x="467.236328"/>
       <use xlink:href="#DejaVuSans-4d" x="522.216797"/>
       <use xlink:href="#DejaVuSans-65" x="608.496094"/>
       <use xlink:href="#DejaVuSans-61" x="670.019531"/>
       <use xlink:href="#DejaVuSans-6e" x="731.298828"/>
      </g>
     </g>
    </g>
    <g id="ytick_3">
     <g id="line2d_19">
      <path d="M 101.615625 141.031744 
L 659.615625 141.031744 
" clip-path="url(#p0594b1131f)" style="fill: none; stroke-dasharray: 2.96,1.28; stroke-dashoffset: 0; stroke: #b0b0b0; stroke-opacity: 0.3; stroke-width: 0.8"/>
     </g>
     <g id="line2d_20">
      <g>
       <use xlink:href="#m00768af06f" x="101.615625" y="141.031744" style="stroke: #000000; stroke-width: 0.8"/>
      </g>
     </g>
     <g id="text_11">
      <!-- Kurtosis -->
      <g transform="translate(50.899219 145.210885) scale(0.11 -0.11)">
       <defs>
        <path id="DejaVuSans-4b" d="M 628 4666 
L 1259 4666 
L 1259 2694 
L 3353 4666 
L 4166 4666 
L 1850 2491 
L 4331 0 
L 3500 0 
L 1259 2247 
L 1259 0 
L 628 0 
L 628 4666 
z
" transform="scale(0.015625)"/>
        <path id="DejaVuSans-75" d="M 544 1381 
L 544 3500 
L 1119 3500 
L 1119 1403 
Q 1119 906 1312 657 
Q 1506 409 1894 409 
Q 2359 409 2629 706 
Q 2900 1003 2900 1516 
L 2900 3500 
L 3475 3500 
L 3475 0 
L 2900 0 
L 2900 538 
Q 2691 219 2414 64 
Q 2138 -91 1772 -91 
Q 1169 -91 856 284 
Q 544 659 544 1381 
z
M 1991 3584 
L 1991 3584 
z
" transform="scale(0.015625)"/>
       </defs>
       <use xlink:href="#DejaVuSans-4b"/>
       <use xlink:href="#DejaVuSans-75" x="60.576172"/>
       <use xlink:href="#DejaVuSans-72" x="123.955078"/>
       <use xlink:href="#DejaVuSans-74" x="165.068359"/>
       <use xlink:href="#DejaVuSans-6f" x="204.277344"/>
       <use xlink:href="#DejaVuSans-73" x="265.458984"/>
       <use xlink:href="#DejaVuSans-69" x="317.558594"/>
       <use xlink:href="#DejaVuSans-73" x="345.341797"/>
      </g>
     </g>
    </g>
    <g id="ytick_4">
     <g id="line2d_21">
      <path d="M 101.615625 177.68629 
L 659.615625 177.68629 
" clip-path="url(#p0594b1131f)" style="fill: none; stroke-dasharray: 2.96,1.28; stroke-dashoffset: 0; stroke: #b0b0b0; stroke-opacity: 0.3; stroke-width: 0.8"/>
     </g>
     <g id="line2d_22">
      <g>
       <use xlink:href="#m00768af06f" x="101.615625" y="177.68629" style="stroke: #000000; stroke-width: 0.8"/>
      </g>
     </g>
     <g id="text_12">
      <!-- Mean -->
      <g transform="translate(64.644063 181.86543) scale(0.11 -0.11)">
       <use xlink:href="#DejaVuSans-4d"/>
       <use xlink:href="#DejaVuSans-65" x="86.279297"/>
       <use xlink:href="#DejaVuSans-61" x="147.802734"/>
       <use xlink:href="#DejaVuSans-6e" x="209.082031"/>
      </g>
     </g>
    </g>
    <g id="ytick_5">
     <g id="line2d_23">
      <path d="M 101.615625 214.340835 
L 659.615625 214.340835 
" clip-path="url(#p0594b1131f)" style="fill: none; stroke-dasharray: 2.96,1.28; stroke-dashoffset: 0; stroke: #b0b0b0; stroke-opacity: 0.3; stroke-width: 0.8"/>
     </g>
     <g id="line2d_24">
      <g>
       <use xlink:href="#m00768af06f" x="101.615625" y="214.340835" style="stroke: #000000; stroke-width: 0.8"/>
      </g>
     </g>
     <g id="text_13">
      <!-- Median -->
      <g transform="translate(54.604844 218.519976) scale(0.11 -0.11)">
       <defs>
        <path id="DejaVuSans-64" d="M 2906 2969 
L 2906 4863 
L 3481 4863 
L 3481 0 
L 2906 0 
L 2906 525 
Q 2725 213 2448 61 
Q 2172 -91 1784 -91 
Q 1150 -91 751 415 
Q 353 922 353 1747 
Q 353 2572 751 3078 
Q 1150 3584 1784 3584 
Q 2172 3584 2448 3432 
Q 2725 3281 2906 2969 
z
M 947 1747 
Q 947 1113 1208 752 
Q 1469 391 1925 391 
Q 2381 391 2643 752 
Q 2906 1113 2906 1747 
Q 2906 2381 2643 2742 
Q 2381 3103 1925 3103 
Q 1469 3103 1208 2742 
Q 947 2381 947 1747 
z
" transform="scale(0.015625)"/>
       </defs>
       <use xlink:href="#DejaVuSans-4d"/>
       <use xlink:href="#DejaVuSans-65" x="86.279297"/>
       <use xlink:href="#DejaVuSans-64" x="147.802734"/>
       <use xlink:href="#DejaVuSans-69" x="211.279297"/>
       <use xlink:href="#DejaVuSans-61" x="239.0625"/>
       <use xlink:href="#DejaVuSans-6e" x="300.341797"/>
      </g>
     </g>
    </g>
    <g id="ytick_6">
     <g id="line2d_25">
      <path d="M 101.615625 250.995381 
L 659.615625 250.995381 
" clip-path="url(#p0594b1131f)" style="fill: none; stroke-dasharray: 2.96,1.28; stroke-dashoffset: 0; stroke: #b0b0b0; stroke-opacity: 0.3; stroke-width: 0.8"/>
     </g>
     <g id="line2d_26">
      <g>
       <use xlink:href="#m00768af06f" x="101.615625" y="250.995381" style="stroke: #000000; stroke-width: 0.8"/>
      </g>
     </g>
     <g id="text_14">
      <!-- Skewness -->
      <g transform="translate(40.696719 255.174521) scale(0.11 -0.11)">
       <defs>
        <path id="DejaVuSans-53" d="M 3425 4513 
L 3425 3897 
Q 3066 4069 2747 4153 
Q 2428 4238 2131 4238 
Q 1616 4238 1336 4038 
Q 1056 3838 1056 3469 
Q 1056 3159 1242 3001 
Q 1428 2844 1947 2747 
L 2328 2669 
Q 3034 2534 3370 2195 
Q 3706 1856 3706 1288 
Q 3706 609 3251 259 
Q 2797 -91 1919 -91 
Q 1588 -91 1214 -16 
Q 841 59 441 206 
L 441 856 
Q 825 641 1194 531 
Q 1563 422 1919 422 
Q 2459 422 2753 634 
Q 3047 847 3047 1241 
Q 3047 1584 2836 1778 
Q 2625 1972 2144 2069 
L 1759 2144 
Q 1053 2284 737 2584 
Q 422 2884 422 3419 
Q 422 4038 858 4394 
Q 1294 4750 2059 4750 
Q 2388 4750 2728 4690 
Q 3069 4631 3425 4513 
z
" transform="scale(0.015625)"/>
        <path id="DejaVuSans-6b" d="M 581 4863 
L 1159 4863 
L 1159 1991 
L 2875 3500 
L 3609 3500 
L 1753 1863 
L 3688 0 
L 2938 0 
L 1159 1709 
L 1159 0 
L 581 0 
L 581 4863 
z
" transform="scale(0.015625)"/>
       </defs>
       <use xlink:href="#DejaVuSans-53"/>
       <use xlink:href="#DejaVuSans-6b" x="63.476562"/>
       <use xlink:href="#DejaVuSans-65" x="117.761719"/>
       <use xlink:href="#DejaVuSans-77" x="179.285156"/>
       <use xlink:href="#DejaVuSans-6e" x="261.072266"/>
       <use xlink:href="#DejaVuSans-65" x="324.451172"/>
       <use xlink:href="#DejaVuSans-73" x="385.974609"/>
       <use xlink:href="#DejaVuSans-73" x="438.074219"/>
      </g>
     </g>
    </g>
    <g id="ytick_7">
     <g id="line2d_27">
      <path d="M 101.615625 287.649926 
L 659.615625 287.649926 
" clip-path="url(#p0594b1131f)" style="fill: none; stroke-dasharray: 2.96,1.28; stroke-dashoffset: 0; stroke: #b0b0b0; stroke-opacity: 0.3; stroke-width: 0.8"/>
     </g>
     <g id="line2d_28">
      <g>
       <use xlink:href="#m00768af06f" x="101.615625" y="287.649926" style="stroke: #000000; stroke-width: 0.8"/>
      </g>
     </g>
     <g id="text_15">
      <!-- StdDev -->
      <g transform="translate(54.587656 291.829067) scale(0.11 -0.11)">
       <defs>
        <path id="DejaVuSans-76" d="M 191 3500 
L 800 3500 
L 1894 563 
L 2988 3500 
L 3597 3500 
L 2284 0 
L 1503 0 
L 191 3500 
z
" transform="scale(0.015625)"/>
       </defs>
       <use xlink:href="#DejaVuSans-53"/>
       <use xlink:href="#DejaVuSans-74" x="63.476562"/>
       <use xlink:href="#DejaVuSans-64" x="102.685547"/>
       <use xlink:href="#DejaVuSans-44" x="166.162109"/>
       <use xlink:href="#DejaVuSans-65" x="243.164062"/>
       <use xlink:href="#DejaVuSans-76" x="304.6875"/>
      </g>
     </g>
    </g>
    <g id="ytick_8">
     <g id="line2d_29">
      <path d="M 101.615625 324.304472 
L 659.615625 324.304472 
" clip-path="url(#p0594b1131f)" style="fill: none; stroke-dasharray: 2.96,1.28; stroke-dashoffset: 0; stroke: #b0b0b0; stroke-opacity: 0.3; stroke-width: 0.8"/>
     </g>
     <g id="line2d_30">
      <g>
       <use xlink:href="#m00768af06f" x="101.615625" y="324.304472" style="stroke: #000000; stroke-width: 0.8"/>
      </g>
     </g>
     <g id="text_16">
      <!-- Variance -->
      <g transform="translate(47.095625 328.483612) scale(0.11 -0.11)">
       <defs>
        <path id="DejaVuSans-56" d="M 1831 0 
L 50 4666 
L 709 4666 
L 2188 738 
L 3669 4666 
L 4325 4666 
L 2547 0 
L 1831 0 
z
" transform="scale(0.015625)"/>
       </defs>
       <use xlink:href="#DejaVuSans-56"/>
       <use xlink:href="#DejaVuSans-61" x="60.658203"/>
       <use xlink:href="#DejaVuSans-72" x="121.9375"/>
       <use xlink:href="#DejaVuSans-69" x="163.050781"/>
       <use xlink:href="#DejaVuSans-61" x="190.833984"/>
       <use xlink:href="#DejaVuSans-6e" x="252.113281"/>
       <use xlink:href="#DejaVuSans-63" x="315.492188"/>
       <use xlink:href="#DejaVuSans-65" x="370.472656"/>
      </g>
     </g>
    </g>
   </g>
   <g id="LineCollection_1">
    <path d="M 168.128159 74.137199 
L 169.462772 74.137199 
" clip-path="url(#p0594b1131f)" style="fill: none; stroke: #000000; stroke-opacity: 0.5; stroke-width: 0.8"/>
    <path d="M 156.048739 110.791744 
L 160.85492 110.791744 
" clip-path="url(#p0594b1131f)" style="fill: none; stroke: #000000; stroke-opacity: 0.5; stroke-width: 0.8"/>
    <path d="M 270.531616 147.44629 
L 276.574716 147.44629 
" clip-path="url(#p0594b1131f)" style="fill: none; stroke: #000000; stroke-opacity: 0.5; stroke-width: 0.8"/>
    <path d="M 110.592682 184.100835 
L 111.301544 184.100835 
" clip-path="url(#p0594b1131f)" style="fill: none; stroke: #000000; stroke-opacity: 0.5; stroke-width: 0.8"/>
    <path d="M 147.557983 220.755381 
L 158.970082 220.755381 
" clip-path="url(#p0594b1131f)" style="fill: none; stroke: #000000; stroke-opacity: 0.5; stroke-width: 0.8"/>
    <path d="M 120.686504 257.409926 
L 122.012271 257.409926 
" clip-path="url(#p0594b1131f)" style="fill: none; stroke: #000000; stroke-opacity: 0.5; stroke-width: 0.8"/>
    <path d="M 115.635594 294.064472 
L 116.656651 294.064472 
" clip-path="url(#p0594b1131f)" style="fill: none; stroke: #000000; stroke-opacity: 0.5; stroke-width: 0.8"/>
    <path d="M 115.349554 330.719017 
L 116.8186 330.719017 
" clip-path="url(#p0594b1131f)" style="fill: none; stroke: #000000; stroke-opacity: 0.5; stroke-width: 0.8"/>
   </g>
   <g id="line2d_31">
    <defs>
     <path id="mc232fd5f01" d="M 0 2 
L 0 -2 
" style="stroke: #000000; stroke-opacity: 0.5"/>
    </defs>
    <g clip-path="url(#p0594b1131f)">
     <use xlink:href="#mc232fd5f01" x="168.128159" y="74.137199" style="fill-opacity: 0.5; stroke: #000000; stroke-opacity: 0.5"/>
     <use xlink:href="#mc232fd5f01" x="156.048739" y="110.791744" style="fill-opacity: 0.5; stroke: #000000; stroke-opacity: 0.5"/>
     <use xlink:href="#mc232fd5f01" x="270.531616" y="147.44629" style="fill-opacity: 0.5; stroke: #000000; stroke-opacity: 0.5"/>
     <use xlink:href="#mc232fd5f01" x="110.592682" y="184.100835" style="fill-opacity: 0.5; stroke: #000000; stroke-opacity: 0.5"/>
     <use xlink:href="#mc232fd5f01" x="147.557983" y="220.755381" style="fill-opacity: 0.5; stroke: #000000; stroke-opacity: 0.5"/>
     <use xlink:href="#mc232fd5f01" x="120.686504" y="257.409926" style="fill-opacity: 0.5; stroke: #000000; stroke-opacity: 0.5"/>
     <use xlink:href="#mc232fd5f01" x="115.635594" y="294.064472" style="fill-opacity: 0.5; stroke: #000000; stroke-opacity: 0.5"/>
     <use xlink:href="#mc232fd5f01" x="115.349554" y="330.719017" style="fill-opacity: 0.5; stroke: #000000; stroke-opacity: 0.5"/>
    </g>
   </g>
   <g id="line2d_32">
    <g clip-path="url(#p0594b1131f)">
     <use xlink:href="#mc232fd5f01" x="169.462772" y="74.137199" style="fill-opacity: 0.5; stroke: #000000; stroke-opacity: 0.5"/>
     <use xlink:href="#mc232fd5f01" x="160.85492" y="110.791744" style="fill-opacity: 0.5; stroke: #000000; stroke-opacity: 0.5"/>
     <use xlink:href="#mc232fd5f01" x="276.574716" y="147.44629" style="fill-opacity: 0.5; stroke: #000000; stroke-opacity: 0.5"/>
     <use xlink:href="#mc232fd5f01" x="111.301544" y="184.100835" style="fill-opacity: 0.5; stroke: #000000; stroke-opacity: 0.5"/>
     <use xlink:href="#mc232fd5f01" x="158.970082" y="220.755381" style="fill-opacity: 0.5; stroke: #000000; stroke-opacity: 0.5"/>
     <use xlink:href="#mc232fd5f01" x="122.012271" y="257.409926" style="fill-opacity: 0.5; stroke: #000000; stroke-opacity: 0.5"/>
     <use xlink:href="#mc232fd5f01" x="116.656651" y="294.064472" style="fill-opacity: 0.5; stroke: #000000; stroke-opacity: 0.5"/>
     <use xlink:href="#mc232fd5f01" x="116.8186" y="330.719017" style="fill-opacity: 0.5; stroke: #000000; stroke-opacity: 0.5"/>
    </g>
   </g>
   <g id="LineCollection_2">
    <path d="M 534.469462 61.308108 
L 561.561788 61.308108 
" clip-path="url(#p0594b1131f)" style="fill: none; stroke: #000000; stroke-opacity: 0.5; stroke-width: 0.8"/>
    <path d="M 141.044552 97.962653 
L 142.464966 97.962653 
" clip-path="url(#p0594b1131f)" style="fill: none; stroke: #000000; stroke-opacity: 0.5; stroke-width: 0.8"/>
    <path d="M 140.973604 134.617199 
L 143.422316 134.617199 
" clip-path="url(#p0594b1131f)" style="fill: none; stroke: #000000; stroke-opacity: 0.5; stroke-width: 0.8"/>
    <path d="M 107.831337 171.271744 
L 108.495602 171.271744 
" clip-path="url(#p0594b1131f)" style="fill: none; stroke: #000000; stroke-opacity: 0.5; stroke-width: 0.8"/>
    <path d="M 149.442467 207.92629 
L 158.703518 207.92629 
" clip-path="url(#p0594b1131f)" style="fill: none; stroke: #000000; stroke-opacity: 0.5; stroke-width: 0.8"/>
    <path d="M 141.396711 244.580835 
L 144.199442 244.580835 
" clip-path="url(#p0594b1131f)" style="fill: none; stroke: #000000; stroke-opacity: 0.5; stroke-width: 0.8"/>
    <path d="M 132.490897 281.235381 
L 134.265907 281.235381 
" clip-path="url(#p0594b1131f)" style="fill: none; stroke: #000000; stroke-opacity: 0.5; stroke-width: 0.8"/>
    <path d="M 132.212743 317.889926 
L 134.029315 317.889926 
" clip-path="url(#p0594b1131f)" style="fill: none; stroke: #000000; stroke-opacity: 0.5; stroke-width: 0.8"/>
   </g>
   <g id="line2d_33">
    <g clip-path="url(#p0594b1131f)">
     <use xlink:href="#mc232fd5f01" x="534.469462" y="61.308108" style="fill-opacity: 0.5; stroke: #000000; stroke-opacity: 0.5"/>
     <use xlink:href="#mc232fd5f01" x="141.044552" y="97.962653" style="fill-opacity: 0.5; stroke: #000000; stroke-opacity: 0.5"/>
     <use xlink:href="#mc232fd5f01" x="140.973604" y="134.617199" style="fill-opacity: 0.5; stroke: #000000; stroke-opacity: 0.5"/>
     <use xlink:href="#mc232fd5f01" x="107.831337" y="171.271744" style="fill-opacity: 0.5; stroke: #000000; stroke-opacity: 0.5"/>
     <use xlink:href="#mc232fd5f01" x="149.442467" y="207.92629" style="fill-opacity: 0.5; stroke: #000000; stroke-opacity: 0.5"/>
     <use xlink:href="#mc232fd5f01" x="141.396711" y="244.580835" style="fill-opacity: 0.5; stroke: #000000; stroke-opacity: 0.5"/>
     <use xlink:href="#mc232fd5f01" x="132.490897" y="281.235381" style="fill-opacity: 0.5; stroke: #000000; stroke-opacity: 0.5"/>
     <use xlink:href="#mc232fd5f01" x="132.212743" y="317.889926" style="fill-opacity: 0.5; stroke: #000000; stroke-opacity: 0.5"/>
    </g>
   </g>
   <g id="line2d_34">
    <g clip-path="url(#p0594b1131f)">
     <use xlink:href="#mc232fd5f01" x="561.561788" y="61.308108" style="fill-opacity: 0.5; stroke: #000000; stroke-opacity: 0.5"/>
     <use xlink:href="#mc232fd5f01" x="142.464966" y="97.962653" style="fill-opacity: 0.5; stroke: #000000; stroke-opacity: 0.5"/>
     <use xlink:href="#mc232fd5f01" x="143.422316" y="134.617199" style="fill-opacity: 0.5; stroke: #000000; stroke-opacity: 0.5"/>
     <use xlink:href="#mc232fd5f01" x="108.495602" y="171.271744" style="fill-opacity: 0.5; stroke: #000000; stroke-opacity: 0.5"/>
     <use xlink:href="#mc232fd5f01" x="158.703518" y="207.92629" style="fill-opacity: 0.5; stroke: #000000; stroke-opacity: 0.5"/>
     <use xlink:href="#mc232fd5f01" x="144.199442" y="244.580835" style="fill-opacity: 0.5; stroke: #000000; stroke-opacity: 0.5"/>
     <use xlink:href="#mc232fd5f01" x="134.265907" y="281.235381" style="fill-opacity: 0.5; stroke: #000000; stroke-opacity: 0.5"/>
     <use xlink:href="#mc232fd5f01" x="134.029315" y="317.889926" style="fill-opacity: 0.5; stroke: #000000; stroke-opacity: 0.5"/>
    </g>
   </g>
   <g id="patch_19">
    <path d="M 101.615625 351.245563 
L 101.615625 40.781562 
" style="fill: none; stroke: #000000; stroke-width: 0.8; stroke-linejoin: miter; stroke-linecap: square"/>
   </g>
   <g id="patch_20">
    <path d="M 659.615625 351.245563 
L 659.615625 40.781562 
" style="fill: none; stroke: #000000; stroke-width: 0.8; stroke-linejoin: miter; stroke-linecap: square"/>
   </g>
   <g id="patch_21">
    <path d="M 101.615625 351.245563 
L 659.615625 351.245563 
" style="fill: none; stroke: #000000; stroke-width: 0.8; stroke-linejoin: miter; stroke-linecap: square"/>
   </g>
   <g id="patch_22">
    <path d="M 101.615625 40.781563 
L 659.615625 40.781563 
" style="fill: none; stroke: #000000; stroke-width: 0.8; stroke-linejoin: miter; stroke-linecap: square"/>
   </g>
   <g id="text_17">
    <g id="patch_23">
     <path d="M 556.943625 66.379358 
L 579.846125 66.379358 
Q 581.046125 66.379358 581.046125 65.179358 
L 581.046125 57.436858 
Q 581.046125 56.236858 579.846125 56.236858 
L 556.943625 56.236858 
Q 555.743625 56.236858 555.743625 57.436858 
L 555.743625 65.179358 
Q 555.743625 66.379358 556.943625 66.379358 
z
" style="fill: #ffffff; opacity: 0.85"/>
    </g>
    <!-- 4,828 -->
    <g style="fill: #333333" transform="translate(556.943625 63.515608) scale(0.08 -0.08)">
     <defs>
      <path id="DejaVuSans-2c" d="M 750 794 
L 1409 794 
L 1409 256 
L 897 -744 
L 494 -744 
L 750 256 
L 750 794 
z
" transform="scale(0.015625)"/>
      <path id="DejaVuSans-38" d="M 2034 2216 
Q 1584 2216 1326 1975 
Q 1069 1734 1069 1313 
Q 1069 891 1326 650 
Q 1584 409 2034 409 
Q 2484 409 2743 651 
Q 3003 894 3003 1313 
Q 3003 1734 2745 1975 
Q 2488 2216 2034 2216 
z
M 1403 2484 
Q 997 2584 770 2862 
Q 544 3141 544 3541 
Q 544 4100 942 4425 
Q 1341 4750 2034 4750 
Q 2731 4750 3128 4425 
Q 3525 4100 3525 3541 
Q 3525 3141 3298 2862 
Q 3072 2584 2669 2484 
Q 3125 2378 3379 2068 
Q 3634 1759 3634 1313 
Q 3634 634 3220 271 
Q 2806 -91 2034 -91 
Q 1263 -91 848 271 
Q 434 634 434 1313 
Q 434 1759 690 2068 
Q 947 2378 1403 2484 
z
M 1172 3481 
Q 1172 3119 1398 2916 
Q 1625 2713 2034 2713 
Q 2441 2713 2670 2916 
Q 2900 3119 2900 3481 
Q 2900 3844 2670 4047 
Q 2441 4250 2034 4250 
Q 1625 4250 1398 4047 
Q 1172 3844 1172 3481 
z
" transform="scale(0.015625)"/>
     </defs>
     <use xlink:href="#DejaVuSans-34"/>
     <use xlink:href="#DejaVuSans-2c" x="63.623047"/>
     <use xlink:href="#DejaVuSans-38" x="95.410156"/>
     <use xlink:href="#DejaVuSans-32" x="159.033203"/>
     <use xlink:href="#DejaVuSans-38" x="222.65625"/>
    </g>
   </g>
   <g id="text_18">
    <g id="patch_24">
     <path d="M 150.682759 103.033903 
L 165.952759 103.033903 
Q 167.152759 103.033903 167.152759 101.833903 
L 167.152759 94.091403 
Q 167.152759 92.891403 165.952759 92.891403 
L 150.682759 92.891403 
Q 149.482759 92.891403 149.482759 94.091403 
L 149.482759 101.833903 
Q 149.482759 103.033903 150.682759 103.033903 
z
" style="fill: #ffffff; opacity: 0.85"/>
    </g>
    <!-- 434 -->
    <g style="fill: #333333" transform="translate(150.682759 100.170153) scale(0.08 -0.08)">
     <use xlink:href="#DejaVuSans-34"/>
     <use xlink:href="#DejaVuSans-33" x="63.623047"/>
     <use xlink:href="#DejaVuSans-34" x="127.246094"/>
    </g>
   </g>
   <g id="text_19">
    <g id="patch_25">
     <path d="M 151.12596 139.688449 
L 166.39596 139.688449 
Q 167.59596 139.688449 167.59596 138.488449 
L 167.59596 130.745949 
Q 167.59596 129.545949 166.39596 129.545949 
L 151.12596 129.545949 
Q 149.92596 129.545949 149.92596 130.745949 
L 149.92596 138.488449 
Q 149.92596 139.688449 151.12596 139.688449 
z
" style="fill: #ffffff; opacity: 0.85"/>
    </g>
    <!-- 439 -->
    <g style="fill: #333333" transform="translate(151.12596 136.824699) scale(0.08 -0.08)">
     <defs>
      <path id="DejaVuSans-39" d="M 703 97 
L 703 672 
Q 941 559 1184 500 
Q 1428 441 1663 441 
Q 2288 441 2617 861 
Q 2947 1281 2994 2138 
Q 2813 1869 2534 1725 
Q 2256 1581 1919 1581 
Q 1219 1581 811 2004 
Q 403 2428 403 3163 
Q 403 3881 828 4315 
Q 1253 4750 1959 4750 
Q 2769 4750 3195 4129 
Q 3622 3509 3622 2328 
Q 3622 1225 3098 567 
Q 2575 -91 1691 -91 
Q 1453 -91 1209 -44 
Q 966 3 703 97 
z
M 1959 2075 
Q 2384 2075 2632 2365 
Q 2881 2656 2881 3163 
Q 2881 3666 2632 3958 
Q 2384 4250 1959 4250 
Q 1534 4250 1286 3958 
Q 1038 3666 1038 3163 
Q 1038 2656 1286 2365 
Q 1534 2075 1959 2075 
z
" transform="scale(0.015625)"/>
     </defs>
     <use xlink:href="#DejaVuSans-34"/>
     <use xlink:href="#DejaVuSans-33" x="63.623047"/>
     <use xlink:href="#DejaVuSans-39" x="127.246094"/>
    </g>
   </g>
   <g id="text_20">
    <g id="patch_26">
     <path d="M 117.09147 176.342994 
L 134.90397 176.342994 
Q 136.10397 176.342994 136.10397 175.142994 
L 136.10397 167.400494 
Q 136.10397 166.200494 134.90397 166.200494 
L 117.09147 166.200494 
Q 115.89147 166.200494 115.89147 167.400494 
L 115.89147 175.142994 
Q 115.89147 176.342994 117.09147 176.342994 
z
" style="fill: #ffffff; opacity: 0.85"/>
    </g>
    <!-- 70.8 -->
    <g style="fill: #333333" transform="translate(117.09147 173.479244) scale(0.08 -0.08)">
     <defs>
      <path id="DejaVuSans-37" d="M 525 4666 
L 3525 4666 
L 3525 4397 
L 1831 0 
L 1172 0 
L 2766 4134 
L 525 4134 
L 525 4666 
z
" transform="scale(0.015625)"/>
      <path id="DejaVuSans-2e" d="M 684 794 
L 1344 794 
L 1344 0 
L 684 0 
L 684 794 
z
" transform="scale(0.015625)"/>
     </defs>
     <use xlink:href="#DejaVuSans-37"/>
     <use xlink:href="#DejaVuSans-30" x="63.623047"/>
     <use xlink:href="#DejaVuSans-2e" x="127.246094"/>
     <use xlink:href="#DejaVuSans-38" x="159.033203"/>
    </g>
   </g>
   <g id="text_21">
    <g id="patch_27">
     <path d="M 163.000993 212.99754 
L 178.270993 212.99754 
Q 179.470993 212.99754 179.470993 211.79754 
L 179.470993 204.05504 
Q 179.470993 202.85504 178.270993 202.85504 
L 163.000993 202.85504 
Q 161.800993 202.85504 161.800993 204.05504 
L 161.800993 211.79754 
Q 161.800993 212.99754 163.000993 212.99754 
z
" style="fill: #ffffff; opacity: 0.85"/>
    </g>
    <!-- 567 -->
    <g style="fill: #333333" transform="translate(163.000993 210.13379) scale(0.08 -0.08)">
     <use xlink:href="#DejaVuSans-35"/>
     <use xlink:href="#DejaVuSans-36" x="63.623047"/>
     <use xlink:href="#DejaVuSans-37" x="127.246094"/>
    </g>
   </g>
   <g id="text_22">
    <g id="patch_28">
     <path d="M 151.726077 249.652085 
L 166.996077 249.652085 
Q 168.196077 249.652085 168.196077 248.452085 
L 168.196077 240.709585 
Q 168.196077 239.509585 166.996077 239.509585 
L 151.726077 239.509585 
Q 150.526077 239.509585 150.526077 240.709585 
L 150.526077 248.452085 
Q 150.526077 249.652085 151.726077 249.652085 
z
" style="fill: #ffffff; opacity: 0.85"/>
    </g>
    <!-- 445 -->
    <g style="fill: #333333" transform="translate(151.726077 246.788335) scale(0.08 -0.08)">
     <use xlink:href="#DejaVuSans-34"/>
     <use xlink:href="#DejaVuSans-34" x="63.623047"/>
     <use xlink:href="#DejaVuSans-35" x="127.246094"/>
    </g>
   </g>
   <g id="text_23">
    <g id="patch_29">
     <path d="M 142.306402 286.306631 
L 157.576402 286.306631 
Q 158.776402 286.306631 158.776402 285.106631 
L 158.776402 277.364131 
Q 158.776402 276.164131 157.576402 276.164131 
L 142.306402 276.164131 
Q 141.106402 276.164131 141.106402 277.364131 
L 141.106402 285.106631 
Q 141.106402 286.306631 142.306402 286.306631 
z
" style="fill: #ffffff; opacity: 0.85"/>
    </g>
    <!-- 343 -->
    <g style="fill: #333333" transform="translate(142.306402 283.442881) scale(0.08 -0.08)">
     <use xlink:href="#DejaVuSans-33"/>
     <use xlink:href="#DejaVuSans-34" x="63.623047"/>
     <use xlink:href="#DejaVuSans-33" x="127.246094"/>
    </g>
   </g>
   <g id="text_24">
    <g id="patch_30">
     <path d="M 142.049029 322.961176 
L 157.319029 322.961176 
Q 158.519029 322.961176 158.519029 321.761176 
L 158.519029 314.018676 
Q 158.519029 312.818676 157.319029 312.818676 
L 142.049029 312.818676 
Q 140.849029 312.818676 140.849029 314.018676 
L 140.849029 321.761176 
Q 140.849029 322.961176 142.049029 322.961176 
z
" style="fill: #ffffff; opacity: 0.85"/>
    </g>
    <!-- 341 -->
    <g style="fill: #333333" transform="translate(142.049029 320.097426) scale(0.08 -0.08)">
     <use xlink:href="#DejaVuSans-33"/>
     <use xlink:href="#DejaVuSans-34" x="63.623047"/>
     <use xlink:href="#DejaVuSans-31" x="127.246094"/>
    </g>
   </g>
   <g id="text_25">
    <g id="patch_31">
     <path d="M 177.723466 79.208449 
L 192.993466 79.208449 
Q 194.193466 79.208449 194.193466 78.008449 
L 194.193466 70.265949 
Q 194.193466 69.065949 192.993466 69.065949 
L 177.723466 69.065949 
Q 176.523466 69.065949 176.523466 70.265949 
L 176.523466 78.008449 
Q 176.523466 79.208449 177.723466 79.208449 
z
" style="fill: #ffffff; opacity: 0.85"/>
    </g>
    <!-- 727 -->
    <g style="fill: #333333" transform="translate(177.723466 76.344699) scale(0.08 -0.08)">
     <use xlink:href="#DejaVuSans-37"/>
     <use xlink:href="#DejaVuSans-32" x="63.623047"/>
     <use xlink:href="#DejaVuSans-37" x="127.246094"/>
    </g>
   </g>
   <g id="text_26">
    <g id="patch_32">
     <path d="M 167.379829 115.862994 
L 182.649829 115.862994 
Q 183.849829 115.862994 183.849829 114.662994 
L 183.849829 106.920494 
Q 183.849829 105.720494 182.649829 105.720494 
L 167.379829 105.720494 
Q 166.179829 105.720494 166.179829 106.920494 
L 166.179829 114.662994 
Q 166.179829 115.862994 167.379829 115.862994 
z
" style="fill: #ffffff; opacity: 0.85"/>
    </g>
    <!-- 615 -->
    <g style="fill: #333333" transform="translate(167.379829 112.999244) scale(0.08 -0.08)">
     <use xlink:href="#DejaVuSans-36"/>
     <use xlink:href="#DejaVuSans-31" x="63.623047"/>
     <use xlink:href="#DejaVuSans-35" x="127.246094"/>
    </g>
   </g>
   <g id="text_27">
    <g id="patch_33">
     <path d="M 282.481166 152.51754 
L 305.383666 152.51754 
Q 306.583666 152.51754 306.583666 151.31754 
L 306.583666 143.57504 
Q 306.583666 142.37504 305.383666 142.37504 
L 282.481166 142.37504 
Q 281.281166 142.37504 281.281166 143.57504 
L 281.281166 151.31754 
Q 281.281166 152.51754 282.481166 152.51754 
z
" style="fill: #ffffff; opacity: 0.85"/>
    </g>
    <!-- 1,859 -->
    <g style="fill: #333333" transform="translate(282.481166 149.65379) scale(0.08 -0.08)">
     <use xlink:href="#DejaVuSans-31"/>
     <use xlink:href="#DejaVuSans-2c" x="63.623047"/>
     <use xlink:href="#DejaVuSans-38" x="95.410156"/>
     <use xlink:href="#DejaVuSans-35" x="159.033203"/>
     <use xlink:href="#DejaVuSans-39" x="222.65625"/>
    </g>
   </g>
   <g id="text_28">
    <g id="patch_34">
     <path d="M 119.875113 189.172085 
L 135.145113 189.172085 
Q 136.345113 189.172085 136.345113 187.972085 
L 136.345113 180.229585 
Q 136.345113 179.029585 135.145113 179.029585 
L 119.875113 179.029585 
Q 118.675113 179.029585 118.675113 180.229585 
L 118.675113 187.972085 
Q 118.675113 189.172085 119.875113 189.172085 
z
" style="fill: #ffffff; opacity: 0.85"/>
    </g>
    <!-- 101 -->
    <g style="fill: #333333" transform="translate(119.875113 186.308335) scale(0.08 -0.08)">
     <use xlink:href="#DejaVuSans-31"/>
     <use xlink:href="#DejaVuSans-30" x="63.623047"/>
     <use xlink:href="#DejaVuSans-31" x="127.246094"/>
    </g>
   </g>
   <g id="text_29">
    <g id="patch_35">
     <path d="M 162.192033 225.826631 
L 177.462033 225.826631 
Q 178.662033 225.826631 178.662033 224.626631 
L 178.662033 216.884131 
Q 178.662033 215.684131 177.462033 215.684131 
L 162.192033 215.684131 
Q 160.992033 215.684131 160.992033 216.884131 
L 160.992033 224.626631 
Q 160.992033 225.826631 162.192033 225.826631 
z
" style="fill: #ffffff; opacity: 0.85"/>
    </g>
    <!-- 559 -->
    <g style="fill: #333333" transform="translate(162.192033 222.962881) scale(0.08 -0.08)">
     <use xlink:href="#DejaVuSans-35"/>
     <use xlink:href="#DejaVuSans-35" x="63.623047"/>
     <use xlink:href="#DejaVuSans-39" x="127.246094"/>
    </g>
   </g>
   <g id="text_30">
    <g id="patch_36">
     <path d="M 130.277388 262.481176 
L 145.547388 262.481176 
Q 146.747388 262.481176 146.747388 261.281176 
L 146.747388 253.538676 
Q 146.747388 252.338676 145.547388 252.338676 
L 130.277388 252.338676 
Q 129.077388 252.338676 129.077388 253.538676 
L 129.077388 261.281176 
Q 129.077388 262.481176 130.277388 262.481176 
z
" style="fill: #ffffff; opacity: 0.85"/>
    </g>
    <!-- 213 -->
    <g style="fill: #333333" transform="translate(130.277388 259.617426) scale(0.08 -0.08)">
     <use xlink:href="#DejaVuSans-32"/>
     <use xlink:href="#DejaVuSans-31" x="63.623047"/>
     <use xlink:href="#DejaVuSans-33" x="127.246094"/>
    </g>
   </g>
   <g id="text_31">
    <g id="patch_37">
     <path d="M 125.074122 299.135722 
L 140.344122 299.135722 
Q 141.544122 299.135722 141.544122 297.935722 
L 141.544122 290.193222 
Q 141.544122 288.993222 140.344122 288.993222 
L 125.074122 288.993222 
Q 123.874122 288.993222 123.874122 290.193222 
L 123.874122 297.935722 
Q 123.874122 299.135722 125.074122 299.135722 
z
" style="fill: #ffffff; opacity: 0.85"/>
    </g>
    <!-- 157 -->
    <g style="fill: #333333" transform="translate(125.074122 296.271972) scale(0.08 -0.08)">
     <use xlink:href="#DejaVuSans-31"/>
     <use xlink:href="#DejaVuSans-35" x="63.623047"/>
     <use xlink:href="#DejaVuSans-37" x="127.246094"/>
    </g>
   </g>
   <g id="text_32">
    <g id="patch_38">
     <path d="M 125.012077 335.790267 
L 140.282077 335.790267 
Q 141.482077 335.790267 141.482077 334.590267 
L 141.482077 326.847767 
Q 141.482077 325.647767 140.282077 325.647767 
L 125.012077 325.647767 
Q 123.812077 325.647767 123.812077 326.847767 
L 123.812077 334.590267 
Q 123.812077 335.790267 125.012077 335.790267 
z
" style="fill: #ffffff; opacity: 0.85"/>
    </g>
    <!-- 156 -->
    <g style="fill: #333333" transform="translate(125.012077 332.926517) scale(0.08 -0.08)">
     <use xlink:href="#DejaVuSans-31"/>
     <use xlink:href="#DejaVuSans-35" x="63.623047"/>
     <use xlink:href="#DejaVuSans-36" x="127.246094"/>
    </g>
   </g>
   <g id="text_33">
    <!-- OpenJDK 21 · JMH 1.37 · Apple Silicon · 5 warmup x 3 s, 5 measurement x 3 s -->
    <g style="fill: #888888" transform="translate(225.74875 33.117813) scale(0.08 -0.08)">
     <defs>
      <path id="DejaVuSans-4f" d="M 2522 4238 
Q 1834 4238 1429 3725 
Q 1025 3213 1025 2328 
Q 1025 1447 1429 934 
Q 1834 422 2522 422 
Q 3209 422 3611 934 
Q 4013 1447 4013 2328 
Q 4013 3213 3611 3725 
Q 3209 4238 2522 4238 
z
M 2522 4750 
Q 3503 4750 4090 4092 
Q 4678 3434 4678 2328 
Q 4678 1225 4090 567 
Q 3503 -91 2522 -91 
Q 1538 -91 948 565 
Q 359 1222 359 2328 
Q 359 3434 948 4092 
Q 1538 4750 2522 4750 
z
" transform="scale(0.015625)"/>
      <path id="DejaVuSans-4a" d="M 628 4666 
L 1259 4666 
L 1259 325 
Q 1259 -519 939 -900 
Q 619 -1281 -91 -1281 
L -331 -1281 
L -331 -750 
L -134 -750 
Q 284 -750 456 -515 
Q 628 -281 628 325 
L 628 4666 
z
" transform="scale(0.015625)"/>
      <path id="DejaVuSans-b7" d="M 684 2619 
L 1344 2619 
L 1344 1825 
L 684 1825 
L 684 2619 
z
" transform="scale(0.015625)"/>
      <path id="DejaVuSans-48" d="M 628 4666 
L 1259 4666 
L 1259 2753 
L 3553 2753 
L 3553 4666 
L 4184 4666 
L 4184 0 
L 3553 0 
L 3553 2222 
L 1259 2222 
L 1259 0 
L 628 0 
L 628 4666 
z
" transform="scale(0.015625)"/>
      <path id="DejaVuSans-41" d="M 2188 4044 
L 1331 1722 
L 3047 1722 
L 2188 4044 
z
M 1831 4666 
L 2547 4666 
L 4325 0 
L 3669 0 
L 3244 1197 
L 1141 1197 
L 716 0 
L 50 0 
L 1831 4666 
z
" transform="scale(0.015625)"/>
      <path id="DejaVuSans-78" d="M 3513 3500 
L 2247 1797 
L 3578 0 
L 2900 0 
L 1881 1375 
L 863 0 
L 184 0 
L 1544 1831 
L 300 3500 
L 978 3500 
L 1906 2253 
L 2834 3500 
L 3513 3500 
z
" transform="scale(0.015625)"/>
     </defs>
     <use xlink:href="#DejaVuSans-4f"/>
     <use xlink:href="#DejaVuSans-70" x="78.710938"/>
     <use xlink:href="#DejaVuSans-65" x="142.1875"/>
     <use xlink:href="#DejaVuSans-6e" x="203.710938"/>
     <use xlink:href="#DejaVuSans-4a" x="267.089844"/>
     <use xlink:href="#DejaVuSans-44" x="296.582031"/>
     <use xlink:href="#DejaVuSans-4b" x="373.583984"/>
     <use xlink:href="#DejaVuSans-20" x="439.160156"/>
     <use xlink:href="#DejaVuSans-32" x="470.947266"/>
     <use xlink:href="#DejaVuSans-31" x="534.570312"/>
     <use xlink:href="#DejaVuSans-20" x="598.193359"/>
     <use xlink:href="#DejaVuSans-b7" x="629.980469"/>
     <use xlink:href="#DejaVuSans-20" x="661.767578"/>
     <use xlink:href="#DejaVuSans-4a" x="693.554688"/>
     <use xlink:href="#DejaVuSans-4d" x="723.046875"/>
     <use xlink:href="#DejaVuSans-48" x="809.326172"/>
     <use xlink:href="#DejaVuSans-20" x="884.521484"/>
     <use xlink:href="#DejaVuSans-31" x="916.308594"/>
     <use xlink:href="#DejaVuSans-2e" x="979.931641"/>
     <use xlink:href="#DejaVuSans-33" x="1011.71875"/>
     <use xlink:href="#DejaVuSans-37" x="1075.341797"/>
     <use xlink:href="#DejaVuSans-20" x="1138.964844"/>
     <use xlink:href="#DejaVuSans-b7" x="1170.751953"/>
     <use xlink:href="#DejaVuSans-20" x="1202.539062"/>
     <use xlink:href="#DejaVuSans-41" x="1234.326172"/>
     <use xlink:href="#DejaVuSans-70" x="1302.734375"/>
     <use xlink:href="#DejaVuSans-70" x="1366.210938"/>
     <use xlink:href="#DejaVuSans-6c" x="1429.6875"/>
     <use xlink:href="#DejaVuSans-65" x="1457.470703"/>
     <use xlink:href="#DejaVuSans-20" x="1518.994141"/>
     <use xlink:href="#DejaVuSans-53" x="1550.78125"/>
     <use xlink:href="#DejaVuSans-69" x="1614.257812"/>
     <use xlink:href="#DejaVuSans-6c" x="1642.041016"/>
     <use xlink:href="#DejaVuSans-69" x="1669.824219"/>
     <use xlink:href="#DejaVuSans-63" x="1697.607422"/>
     <use xlink:href="#DejaVuSans-6f" x="1752.587891"/>
     <use xlink:href="#DejaVuSans-6e" x="1813.769531"/>
     <use xlink:href="#DejaVuSans-20" x="1877.148438"/>
     <use xlink:href="#DejaVuSans-b7" x="1908.935547"/>
     <use xlink:href="#DejaVuSans-20" x="1940.722656"/>
     <use xlink:href="#DejaVuSans-35" x="1972.509766"/>
     <use xlink:href="#DejaVuSans-20" x="2036.132812"/>
     <use xlink:href="#DejaVuSans-77" x="2067.919922"/>
     <use xlink:href="#DejaVuSans-61" x="2149.707031"/>
     <use xlink:href="#DejaVuSans-72" x="2210.986328"/>
     <use xlink:href="#DejaVuSans-6d" x="2250.349609"/>
     <use xlink:href="#DejaVuSans-75" x="2347.761719"/>
     <use xlink:href="#DejaVuSans-70" x="2411.140625"/>
     <use xlink:href="#DejaVuSans-20" x="2474.617188"/>
     <use xlink:href="#DejaVuSans-78" x="2506.404297"/>
     <use xlink:href="#DejaVuSans-20" x="2565.583984"/>
     <use xlink:href="#DejaVuSans-33" x="2597.371094"/>
     <use xlink:href="#DejaVuSans-20" x="2660.994141"/>
     <use xlink:href="#DejaVuSans-73" x="2692.78125"/>
     <use xlink:href="#DejaVuSans-2c" x="2744.880859"/>
     <use xlink:href="#DejaVuSans-20" x="2776.667969"/>
     <use xlink:href="#DejaVuSans-35" x="2808.455078"/>
     <use xlink:href="#DejaVuSans-20" x="2872.078125"/>
     <use xlink:href="#DejaVuSans-6d" x="2903.865234"/>
     <use xlink:href="#DejaVuSans-65" x="3001.277344"/>
     <use xlink:href="#DejaVuSans-61" x="3062.800781"/>
     <use xlink:href="#DejaVuSans-73" x="3124.080078"/>
     <use xlink:href="#DejaVuSans-75" x="3176.179688"/>
     <use xlink:href="#DejaVuSans-72" x="3239.558594"/>
     <use xlink:href="#DejaVuSans-65" x="3278.421875"/>
     <use xlink:href="#DejaVuSans-6d" x="3339.945312"/>
     <use xlink:href="#DejaVuSans-65" x="3437.357422"/>
     <use xlink:href="#DejaVuSans-6e" x="3498.880859"/>
     <use xlink:href="#DejaVuSans-74" x="3562.259766"/>
     <use xlink:href="#DejaVuSans-20" x="3601.46875"/>
     <use xlink:href="#DejaVuSans-78" x="3633.255859"/>
     <use xlink:href="#DejaVuSans-20" x="3692.435547"/>
     <use xlink:href="#DejaVuSans-33" x="3724.222656"/>
     <use xlink:href="#DejaVuSans-20" x="3787.845703"/>
     <use xlink:href="#DejaVuSans-73" x="3819.632812"/>
    </g>
   </g>
   <g id="text_34">
    <!-- Descriptive Statistics  (n=100K) -->
    <g transform="translate(263.178906 17.077969) scale(0.13 -0.13)">
     <defs>
      <path id="DejaVuSans-Bold-44" d="M 1791 3756 
L 1791 909 
L 2222 909 
Q 2959 909 3348 1275 
Q 3738 1641 3738 2338 
Q 3738 3031 3350 3393 
Q 2963 3756 2222 3756 
L 1791 3756 
z
M 588 4666 
L 1856 4666 
Q 2919 4666 3439 4514 
Q 3959 4363 4331 4000 
Q 4659 3684 4818 3271 
Q 4978 2859 4978 2338 
Q 4978 1809 4818 1395 
Q 4659 981 4331 666 
Q 3956 303 3431 151 
Q 2906 0 1856 0 
L 588 0 
L 588 4666 
z
" transform="scale(0.015625)"/>
      <path id="DejaVuSans-Bold-65" d="M 4031 1759 
L 4031 1441 
L 1416 1441 
Q 1456 1047 1700 850 
Q 1944 653 2381 653 
Q 2734 653 3104 758 
Q 3475 863 3866 1075 
L 3866 213 
Q 3469 63 3072 -14 
Q 2675 -91 2278 -91 
Q 1328 -91 801 392 
Q 275 875 275 1747 
Q 275 2603 792 3093 
Q 1309 3584 2216 3584 
Q 3041 3584 3536 3087 
Q 4031 2591 4031 1759 
z
M 2881 2131 
Q 2881 2450 2695 2645 
Q 2509 2841 2209 2841 
Q 1884 2841 1681 2658 
Q 1478 2475 1428 2131 
L 2881 2131 
z
" transform="scale(0.015625)"/>
      <path id="DejaVuSans-Bold-73" d="M 3272 3391 
L 3272 2541 
Q 2913 2691 2578 2766 
Q 2244 2841 1947 2841 
Q 1628 2841 1473 2761 
Q 1319 2681 1319 2516 
Q 1319 2381 1436 2309 
Q 1553 2238 1856 2203 
L 2053 2175 
Q 2913 2066 3209 1816 
Q 3506 1566 3506 1031 
Q 3506 472 3093 190 
Q 2681 -91 1863 -91 
Q 1516 -91 1145 -36 
Q 775 19 384 128 
L 384 978 
Q 719 816 1070 734 
Q 1422 653 1784 653 
Q 2113 653 2278 743 
Q 2444 834 2444 1013 
Q 2444 1163 2330 1236 
Q 2216 1309 1875 1350 
L 1678 1375 
Q 931 1469 631 1722 
Q 331 1975 331 2491 
Q 331 3047 712 3315 
Q 1094 3584 1881 3584 
Q 2191 3584 2531 3537 
Q 2872 3491 3272 3391 
z
" transform="scale(0.015625)"/>
      <path id="DejaVuSans-Bold-63" d="M 3366 3391 
L 3366 2478 
Q 3138 2634 2908 2709 
Q 2678 2784 2431 2784 
Q 1963 2784 1702 2511 
Q 1441 2238 1441 1747 
Q 1441 1256 1702 982 
Q 1963 709 2431 709 
Q 2694 709 2930 787 
Q 3166 866 3366 1019 
L 3366 103 
Q 3103 6 2833 -42 
Q 2563 -91 2291 -91 
Q 1344 -91 809 395 
Q 275 881 275 1747 
Q 275 2613 809 3098 
Q 1344 3584 2291 3584 
Q 2566 3584 2833 3536 
Q 3100 3488 3366 3391 
z
" transform="scale(0.015625)"/>
      <path id="DejaVuSans-Bold-72" d="M 3138 2547 
Q 2991 2616 2845 2648 
Q 2700 2681 2553 2681 
Q 2122 2681 1889 2404 
Q 1656 2128 1656 1613 
L 1656 0 
L 538 0 
L 538 3500 
L 1656 3500 
L 1656 2925 
Q 1872 3269 2151 3426 
Q 2431 3584 2822 3584 
Q 2878 3584 2943 3579 
Q 3009 3575 3134 3559 
L 3138 2547 
z
" transform="scale(0.015625)"/>
      <path id="DejaVuSans-Bold-69" d="M 538 3500 
L 1656 3500 
L 1656 0 
L 538 0 
L 538 3500 
z
M 538 4863 
L 1656 4863 
L 1656 3950 
L 538 3950 
L 538 4863 
z
" transform="scale(0.015625)"/>
      <path id="DejaVuSans-Bold-70" d="M 1656 506 
L 1656 -1331 
L 538 -1331 
L 538 3500 
L 1656 3500 
L 1656 2988 
Q 1888 3294 2169 3439 
Q 2450 3584 2816 3584 
Q 3463 3584 3878 3070 
Q 4294 2556 4294 1747 
Q 4294 938 3878 423 
Q 3463 -91 2816 -91 
Q 2450 -91 2169 54 
Q 1888 200 1656 506 
z
M 2400 2772 
Q 2041 2772 1848 2508 
Q 1656 2244 1656 1747 
Q 1656 1250 1848 986 
Q 2041 722 2400 722 
Q 2759 722 2948 984 
Q 3138 1247 3138 1747 
Q 3138 2247 2948 2509 
Q 2759 2772 2400 2772 
z
" transform="scale(0.015625)"/>
      <path id="DejaVuSans-Bold-74" d="M 1759 4494 
L 1759 3500 
L 2913 3500 
L 2913 2700 
L 1759 2700 
L 1759 1216 
Q 1759 972 1856 886 
Q 1953 800 2241 800 
L 2816 800 
L 2816 0 
L 1856 0 
Q 1194 0 917 276 
Q 641 553 641 1216 
L 641 2700 
L 84 2700 
L 84 3500 
L 641 3500 
L 641 4494 
L 1759 4494 
z
" transform="scale(0.015625)"/>
      <path id="DejaVuSans-Bold-76" d="M 97 3500 
L 1216 3500 
L 2088 1081 
L 2956 3500 
L 4078 3500 
L 2700 0 
L 1472 0 
L 97 3500 
z
" transform="scale(0.015625)"/>
      <path id="DejaVuSans-Bold-20" transform="scale(0.015625)"/>
      <path id="DejaVuSans-Bold-53" d="M 3834 4519 
L 3834 3531 
Q 3450 3703 3084 3790 
Q 2719 3878 2394 3878 
Q 1963 3878 1756 3759 
Q 1550 3641 1550 3391 
Q 1550 3203 1689 3098 
Q 1828 2994 2194 2919 
L 2706 2816 
Q 3484 2659 3812 2340 
Q 4141 2022 4141 1434 
Q 4141 663 3683 286 
Q 3225 -91 2284 -91 
Q 1841 -91 1394 -6 
Q 947 78 500 244 
L 500 1259 
Q 947 1022 1364 901 
Q 1781 781 2169 781 
Q 2563 781 2772 912 
Q 2981 1044 2981 1288 
Q 2981 1506 2839 1625 
Q 2697 1744 2272 1838 
L 1806 1941 
Q 1106 2091 782 2419 
Q 459 2747 459 3303 
Q 459 4000 909 4375 
Q 1359 4750 2203 4750 
Q 2588 4750 2994 4692 
Q 3400 4634 3834 4519 
z
" transform="scale(0.015625)"/>
      <path id="DejaVuSans-Bold-61" d="M 2106 1575 
Q 1756 1575 1579 1456 
Q 1403 1338 1403 1106 
Q 1403 894 1545 773 
Q 1688 653 1941 653 
Q 2256 653 2472 879 
Q 2688 1106 2688 1447 
L 2688 1575 
L 2106 1575 
z
M 3816 1997 
L 3816 0 
L 2688 0 
L 2688 519 
Q 2463 200 2181 54 
Q 1900 -91 1497 -91 
Q 953 -91 614 226 
Q 275 544 275 1050 
Q 275 1666 698 1953 
Q 1122 2241 2028 2241 
L 2688 2241 
L 2688 2328 
Q 2688 2594 2478 2717 
Q 2269 2841 1825 2841 
Q 1466 2841 1156 2769 
Q 847 2697 581 2553 
L 581 3406 
Q 941 3494 1303 3539 
Q 1666 3584 2028 3584 
Q 2975 3584 3395 3211 
Q 3816 2838 3816 1997 
z
" transform="scale(0.015625)"/>
      <path id="DejaVuSans-Bold-28" d="M 2413 -844 
L 1484 -844 
Q 1006 -72 778 623 
Q 550 1319 550 2003 
Q 550 2688 779 3389 
Q 1009 4091 1484 4856 
L 2413 4856 
Q 2013 4116 1813 3408 
Q 1613 2700 1613 2009 
Q 1613 1319 1811 609 
Q 2009 -100 2413 -844 
z
" transform="scale(0.015625)"/>
      <path id="DejaVuSans-Bold-6e" d="M 4056 2131 
L 4056 0 
L 2931 0 
L 2931 347 
L 2931 1631 
Q 2931 2084 2911 2256 
Q 2891 2428 2841 2509 
Q 2775 2619 2662 2680 
Q 2550 2741 2406 2741 
Q 2056 2741 1856 2470 
Q 1656 2200 1656 1722 
L 1656 0 
L 538 0 
L 538 3500 
L 1656 3500 
L 1656 2988 
Q 1909 3294 2193 3439 
Q 2478 3584 2822 3584 
Q 3428 3584 3742 3212 
Q 4056 2841 4056 2131 
z
" transform="scale(0.015625)"/>
      <path id="DejaVuSans-Bold-3d" d="M 678 3084 
L 4684 3084 
L 4684 2350 
L 678 2350 
L 678 3084 
z
M 678 1663 
L 4684 1663 
L 4684 922 
L 678 922 
L 678 1663 
z
" transform="scale(0.015625)"/>
      <path id="DejaVuSans-Bold-31" d="M 750 831 
L 1813 831 
L 1813 3847 
L 722 3622 
L 722 4441 
L 1806 4666 
L 2950 4666 
L 2950 831 
L 4013 831 
L 4013 0 
L 750 0 
L 750 831 
z
" transform="scale(0.015625)"/>
      <path id="DejaVuSans-Bold-30" d="M 2944 2338 
Q 2944 3213 2780 3570 
Q 2616 3928 2228 3928 
Q 1841 3928 1675 3570 
Q 1509 3213 1509 2338 
Q 1509 1453 1675 1090 
Q 1841 728 2228 728 
Q 2613 728 2778 1090 
Q 2944 1453 2944 2338 
z
M 4147 2328 
Q 4147 1169 3647 539 
Q 3147 -91 2228 -91 
Q 1306 -91 806 539 
Q 306 1169 306 2328 
Q 306 3491 806 4120 
Q 1306 4750 2228 4750 
Q 3147 4750 3647 4120 
Q 4147 3491 4147 2328 
z
" transform="scale(0.015625)"/>
      <path id="DejaVuSans-Bold-4b" d="M 588 4666 
L 1791 4666 
L 1791 2963 
L 3525 4666 
L 4922 4666 
L 2675 2456 
L 5153 0 
L 3647 0 
L 1791 1838 
L 1791 0 
L 588 0 
L 588 4666 
z
" transform="scale(0.015625)"/>
      <path id="DejaVuSans-Bold-29" d="M 513 -844 
Q 913 -100 1113 609 
Q 1313 1319 1313 2009 
Q 1313 2700 1113 3408 
Q 913 4116 513 4856 
L 1441 4856 
Q 1916 4091 2145 3389 
Q 2375 2688 2375 2003 
Q 2375 1319 2147 623 
Q 1919 -72 1441 -844 
L 513 -844 
z
" transform="scale(0.015625)"/>
     </defs>
     <use xlink:href="#DejaVuSans-Bold-44"/>
     <use xlink:href="#DejaVuSans-Bold-65" x="83.007812"/>
     <use xlink:href="#DejaVuSans-Bold-73" x="150.830078"/>
     <use xlink:href="#DejaVuSans-Bold-63" x="210.351562"/>
     <use xlink:href="#DejaVuSans-Bold-72" x="269.628906"/>
     <use xlink:href="#DejaVuSans-Bold-69" x="318.945312"/>
     <use xlink:href="#DejaVuSans-Bold-70" x="353.222656"/>
     <use xlink:href="#DejaVuSans-Bold-74" x="424.804688"/>
     <use xlink:href="#DejaVuSans-Bold-69" x="472.607422"/>
     <use xlink:href="#DejaVuSans-Bold-76" x="506.884766"/>
     <use xlink:href="#DejaVuSans-Bold-65" x="572.070312"/>
     <use xlink:href="#DejaVuSans-Bold-20" x="639.892578"/>
     <use xlink:href="#DejaVuSans-Bold-53" x="674.707031"/>
     <use xlink:href="#DejaVuSans-Bold-74" x="746.728516"/>
     <use xlink:href="#DejaVuSans-Bold-61" x="794.53125"/>
     <use xlink:href="#DejaVuSans-Bold-74" x="862.011719"/>
     <use xlink:href="#DejaVuSans-Bold-69" x="909.814453"/>
     <use xlink:href="#DejaVuSans-Bold-73" x="944.091797"/>
     <use xlink:href="#DejaVuSans-Bold-74" x="1003.613281"/>
     <use xlink:href="#DejaVuSans-Bold-69" x="1051.416016"/>
     <use xlink:href="#DejaVuSans-Bold-63" x="1085.693359"/>
     <use xlink:href="#DejaVuSans-Bold-73" x="1144.970703"/>
     <use xlink:href="#DejaVuSans-Bold-20" x="1204.492188"/>
     <use xlink:href="#DejaVuSans-Bold-20" x="1239.306641"/>
     <use xlink:href="#DejaVuSans-Bold-28" x="1274.121094"/>
     <use xlink:href="#DejaVuSans-Bold-6e" x="1319.824219"/>
     <use xlink:href="#DejaVuSans-Bold-3d" x="1391.015625"/>
     <use xlink:href="#DejaVuSans-Bold-31" x="1474.804688"/>
     <use xlink:href="#DejaVuSans-Bold-30" x="1544.384766"/>
     <use xlink:href="#DejaVuSans-Bold-30" x="1613.964844"/>
     <use xlink:href="#DejaVuSans-Bold-4b" x="1683.544922"/>
     <use xlink:href="#DejaVuSans-Bold-29" x="1761.035156"/>
    </g>
   </g>
   <g id="legend_1">
    <g id="patch_39">
     <path d="M 672.195625 78.137812 
L 782.63625 78.137812 
Q 784.63625 78.137812 784.63625 76.137812 
L 784.63625 47.781563 
Q 784.63625 45.781563 782.63625 45.781563 
L 672.195625 45.781563 
Q 670.195625 45.781563 670.195625 47.781563 
L 670.195625 76.137812 
Q 670.195625 78.137812 672.195625 78.137812 
z
" style="fill: #fafafa; opacity: 0.9; stroke: #cccccc; stroke-linejoin: miter"/>
    </g>
    <g id="patch_40">
     <path d="M 674.195625 57.38 
L 694.195625 57.38 
L 694.195625 50.38 
L 674.195625 50.38 
z
" style="fill: #ff7043; opacity: 0.85"/>
    </g>
    <g id="text_35">
     <!-- Commons Math -->
     <g transform="translate(702.195625 57.38) scale(0.1 -0.1)">
      <defs>
       <path id="DejaVuSans-43" d="M 4122 4306 
L 4122 3641 
Q 3803 3938 3442 4084 
Q 3081 4231 2675 4231 
Q 1875 4231 1450 3742 
Q 1025 3253 1025 2328 
Q 1025 1406 1450 917 
Q 1875 428 2675 428 
Q 3081 428 3442 575 
Q 3803 722 4122 1019 
L 4122 359 
Q 3791 134 3420 21 
Q 3050 -91 2638 -91 
Q 1578 -91 968 557 
Q 359 1206 359 2328 
Q 359 3453 968 4101 
Q 1578 4750 2638 4750 
Q 3056 4750 3426 4639 
Q 3797 4528 4122 4306 
z
" transform="scale(0.015625)"/>
       <path id="DejaVuSans-68" d="M 3513 2113 
L 3513 0 
L 2938 0 
L 2938 2094 
Q 2938 2591 2744 2837 
Q 2550 3084 2163 3084 
Q 1697 3084 1428 2787 
Q 1159 2491 1159 1978 
L 1159 0 
L 581 0 
L 581 4863 
L 1159 4863 
L 1159 2956 
Q 1366 3272 1645 3428 
Q 1925 3584 2291 3584 
Q 2894 3584 3203 3211 
Q 3513 2838 3513 2113 
z
" transform="scale(0.015625)"/>
      </defs>
      <use xlink:href="#DejaVuSans-43"/>
      <use xlink:href="#DejaVuSans-6f" x="69.824219"/>
      <use xlink:href="#DejaVuSans-6d" x="131.005859"/>
      <use xlink:href="#DejaVuSans-6d" x="228.417969"/>
      <use xlink:href="#DejaVuSans-6f" x="325.830078"/>
      <use xlink:href="#DejaVuSans-6e" x="387.011719"/>
      <use xlink:href="#DejaVuSans-73" x="450.390625"/>
      <use xlink:href="#DejaVuSans-20" x="502.490234"/>
      <use xlink:href="#DejaVuSans-4d" x="534.277344"/>
      <use xlink:href="#DejaVuSans-61" x="620.556641"/>
      <use xlink:href="#DejaVuSans-74" x="681.835938"/>
      <use xlink:href="#DejaVuSans-68" x="721.044922"/>
     </g>
    </g>
    <g id="patch_41">
     <path d="M 674.195625 72.058125 
L 694.195625 72.058125 
L 694.195625 65.058125 
L 674.195625 65.058125 
z
" style="fill: #26a69a; opacity: 0.85"/>
    </g>
    <g id="text_36">
     <!-- kstats -->
     <g transform="translate(702.195625 72.058125) scale(0.1 -0.1)">
      <use xlink:href="#DejaVuSans-6b"/>
      <use xlink:href="#DejaVuSans-73" x="57.910156"/>
      <use xlink:href="#DejaVuSans-74" x="110.009766"/>
      <use xlink:href="#DejaVuSans-61" x="149.21875"/>
      <use xlink:href="#DejaVuSans-74" x="210.498047"/>
      <use xlink:href="#DejaVuSans-73" x="249.707031"/>
     </g>
    </g>
   </g>
  </g>
 </g>
 <defs>
  <clipPath id="p0594b1131f">
   <rect x="101.615625" y="40.781563" width="558" height="310.464"/>
  </clipPath>
 </defs>
</svg>
