<svg width="718" height="193" viewBox="0 23 718 193" fill="none" xmlns="http://www.w3.org/2000/svg">
<path d="M193 23L95.0108 117.49C123.141 117.505 129.173 151.673 147.768 178.091C166.367 204.516 191.995 216 191.995 216H0V23H193Z" fill="#EEF2F6"/>
<path d="M95 117.5L193 23H1V133M95.5 117C123.5 117 129.5 151 148.003 177.288C166.505 203.576 192 215 192 215H75" stroke="#24292F" stroke-width="2"/>
<rect y="172" width="18" height="44" fill="#24292F" fill-opacity="0.84"/>
<rect y="140" width="18" height="25" fill="#24292F" fill-opacity="0.96"/>
<rect x="25" y="148" width="18" height="68" fill="#24292F" fill-opacity="0.91"/>
<rect x="25" y="73" width="18" height="68" fill="#222528"/>
<rect x="50" y="119" width="18" height="53" fill="#29323D"/>
<rect x="50" y="179" width="18" height="37" fill="#21272E"/>
<path d="M208.04 189V55.52H223.832V142.94L272.336 89.36H293.392L254.1 131.66L295.084 189H275.908L243.384 142.376L223.832 163.056V189H208.04ZM345.851 191.256C336.953 191.256 329.37 189.815 323.103 186.932C316.962 184.049 312.137 180.101 308.627 175.088C305.243 169.949 303.301 164.121 302.799 157.604L319.343 156.476C320.346 162.492 322.915 167.317 327.051 170.952C331.187 174.461 337.454 176.216 345.851 176.216C352.619 176.216 358.009 175.151 362.019 173.02C366.155 170.764 368.223 167.192 368.223 162.304C368.223 159.672 367.597 157.479 366.343 155.724C365.09 153.969 362.646 152.465 359.011 151.212C355.377 149.833 349.987 148.517 342.843 147.264C333.318 145.509 325.798 143.379 320.283 140.872C314.894 138.24 311.009 135.044 308.627 131.284C306.371 127.399 305.243 122.824 305.243 117.56C305.243 108.661 308.502 101.392 315.019 95.752C321.537 89.9867 330.811 87.104 342.843 87.104C350.99 87.104 357.821 88.608 363.335 91.616C368.975 94.4987 373.362 98.384 376.495 103.272C379.754 108.035 381.885 113.299 382.887 119.064L366.343 120.192C365.591 116.683 364.213 113.612 362.207 110.98C360.202 108.223 357.57 106.092 354.311 104.588C351.053 102.959 347.167 102.144 342.655 102.144C335.511 102.144 330.247 103.523 326.863 106.28C323.479 109.037 321.787 112.547 321.787 116.808C321.787 120.067 322.539 122.761 324.043 124.892C325.673 126.897 328.242 128.589 331.751 129.968C335.261 131.221 339.961 132.349 345.851 133.352C356.003 135.107 363.899 137.237 369.539 139.744C375.179 142.251 379.127 145.321 381.383 148.956C383.639 152.591 384.767 157.04 384.767 162.304C384.767 168.445 383.013 173.709 379.503 178.096C376.119 182.357 371.482 185.616 365.591 187.872C359.826 190.128 353.246 191.256 345.851 191.256ZM438.938 189C429.914 189 423.208 186.932 418.822 182.796C414.56 178.66 412.43 172.205 412.43 163.432V66.048H428.222V163.056C428.222 167.568 429.224 170.701 431.23 172.456C433.235 174.211 436.306 175.088 440.442 175.088H454.73V189H438.938ZM397.766 103.272V89.36H454.73V103.272H397.766ZM501.135 191.256C490.858 191.256 482.648 188.875 476.507 184.112C470.491 179.349 467.483 172.707 467.483 164.184C467.483 155.661 469.99 148.956 475.003 144.068C480.016 139.18 487.975 135.733 498.879 133.728L534.223 127.148C534.223 118.751 532.218 112.484 528.207 108.348C524.322 104.212 518.431 102.144 510.535 102.144C503.642 102.144 498.19 103.711 494.179 106.844C490.168 109.852 487.411 114.239 485.907 120.004L469.175 118.688C471.055 109.288 475.567 101.705 482.711 95.94C489.98 90.0493 499.255 87.104 510.535 87.104C523.319 87.104 533.095 90.7387 539.863 98.008C546.631 105.152 550.015 115.053 550.015 127.712V168.884C550.015 171.14 550.391 172.769 551.143 173.772C552.02 174.649 553.399 175.088 555.279 175.088H559.227V189C558.726 189.125 557.911 189.188 556.783 189.188C555.655 189.313 554.464 189.376 553.211 189.376C548.699 189.376 545.002 188.687 542.119 187.308C539.362 185.804 537.356 183.548 536.103 180.54C534.85 177.407 534.223 173.333 534.223 168.32L536.103 168.696C535.226 172.957 533.095 176.843 529.711 180.352C526.327 183.736 522.128 186.431 517.115 188.436C512.102 190.316 506.775 191.256 501.135 191.256ZM502.639 177.344C509.282 177.344 514.922 176.091 519.559 173.584C524.322 170.952 527.956 167.443 530.463 163.056C532.97 158.544 534.223 153.531 534.223 148.016V140.872L501.887 146.888C495.119 148.141 490.419 150.084 487.787 152.716C485.28 155.223 484.027 158.544 484.027 162.68C484.027 167.317 485.656 170.952 488.915 173.584C492.299 176.091 496.874 177.344 502.639 177.344ZM608.578 189C599.554 189 592.849 186.932 588.462 182.796C584.201 178.66 582.07 172.205 582.07 163.432V66.048H597.862V163.056C597.862 167.568 598.865 170.701 600.87 172.456C602.876 174.211 605.946 175.088 610.082 175.088H624.37V189H608.578ZM567.406 103.272V89.36H624.37V103.272H567.406ZM679.074 191.256C670.175 191.256 662.593 189.815 656.326 186.932C650.185 184.049 645.359 180.101 641.85 175.088C638.466 169.949 636.523 164.121 636.022 157.604L652.566 156.476C653.569 162.492 656.138 167.317 660.274 170.952C664.41 174.461 670.677 176.216 679.074 176.216C685.842 176.216 691.231 175.151 695.242 173.02C699.378 170.764 701.446 167.192 701.446 162.304C701.446 159.672 700.819 157.479 699.566 155.724C698.313 153.969 695.869 152.465 692.234 151.212C688.599 149.833 683.21 148.517 676.066 147.264C666.541 145.509 659.021 143.379 653.506 140.872C648.117 138.24 644.231 135.044 641.85 131.284C639.594 127.399 638.466 122.824 638.466 117.56C638.466 108.661 641.725 101.392 648.242 95.752C654.759 89.9867 664.034 87.104 676.066 87.104C684.213 87.104 691.043 88.608 696.558 91.616C702.198 94.4987 706.585 98.384 709.718 103.272C712.977 108.035 715.107 113.299 716.11 119.064L699.566 120.192C698.814 116.683 697.435 113.612 695.43 110.98C693.425 108.223 690.793 106.092 687.534 104.588C684.275 102.959 680.39 102.144 675.878 102.144C668.734 102.144 663.47 103.523 660.086 106.28C656.702 109.037 655.01 112.547 655.01 116.808C655.01 120.067 655.762 122.761 657.266 124.892C658.895 126.897 661.465 128.589 664.974 129.968C668.483 131.221 673.183 132.349 679.074 133.352C689.226 135.107 697.122 137.237 702.762 139.744C708.402 142.251 712.35 145.321 714.606 148.956C716.862 152.591 717.99 157.04 717.99 162.304C717.99 168.445 716.235 173.709 712.726 178.096C709.342 182.357 704.705 185.616 698.814 187.872C693.049 190.128 686.469 191.256 679.074 191.256Z" fill="#151A1E"/>
</svg>
